<?xml version="1.0" encoding="UTF-8"?>
<svg id="Layer_2" xmlns="http://www.w3.org/2000/svg" viewBox="0 0 1962.96 651.82">
  <defs>
    <style>
      .cls-1 {
        fill: #f68895;
      }
    </style>
  </defs>
  <g id="_Слой_2" data-name="Слой_2">
    <g>
      <path class="cls-1" d="M976.18,639.03c-2.92,2.93-2.92,7.67,0,10.6,2.93,2.93,7.67,2.93,10.6,0,2.93-2.92,2.93-7.67,0-10.6-2.93-2.92-7.67-2.92-10.6,0Z"/>
      <path class="cls-1" d="M1013.64,601.57c-2.93,2.93-2.93,7.67,0,10.6,2.93,2.93,7.67,2.93,10.6,0,2.93-2.92,2.93-7.67,0-10.6-2.93-2.93-7.67-2.93-10.6,0Z"/>
      <path class="cls-1" d="M1088.56,601.57c-2.92,2.93-2.92,7.67,0,10.6,2.93,2.93,7.67,2.93,10.6,0,2.93-2.92,2.93-7.67,0-10.6-2.93-2.93-7.67-2.93-10.6,0Z"/>
      <path class="cls-1" d="M1163.48,601.57c-2.92,2.93-2.92,7.67,0,10.6,2.93,2.93,7.67,2.93,10.6,0,2.93-2.92,2.93-7.67,0-10.6-2.93-2.93-7.67-2.93-10.6,0Z"/>
      <path class="cls-1" d="M1238.41,601.57c-2.92,2.93-2.92,7.67,0,10.6,2.93,2.93,7.67,2.93,10.6,0,2.93-2.92,2.93-7.67,0-10.6-2.93-2.93-7.67-2.93-10.6,0Z"/>
      <path class="cls-1" d="M1313.33,601.57c-2.92,2.93-2.92,7.67,0,10.6,2.93,2.93,7.67,2.93,10.6,0,2.93-2.92,2.93-7.67,0-10.6-2.93-2.93-7.67-2.93-10.6,0Z"/>
      <path class="cls-1" d="M1388.25,601.57c-2.93,2.93-2.93,7.67,0,10.6,2.93,2.93,7.67,2.93,10.6,0,2.93-2.92,2.93-7.67,0-10.6-2.93-2.93-7.67-2.93-10.6,0Z"/>
      <path class="cls-1" d="M1463.17,601.57c-2.93,2.93-2.93,7.67,0,10.6,2.93,2.93,7.67,2.93,10.6,0,2.92-2.92,2.92-7.67,0-10.6-2.93-2.93-7.67-2.93-10.6,0Z"/>
      <path class="cls-1" d="M1538.09,601.57c-2.93,2.93-2.93,7.67,0,10.6,2.93,2.93,7.67,2.93,10.6,0,2.92-2.92,2.92-7.67,0-10.6-2.93-2.93-7.67-2.93-10.6,0Z"/>
      <path class="cls-1" d="M1613.02,601.57c-2.93,2.93-2.93,7.67,0,10.6,2.93,2.93,7.67,2.93,10.6,0,2.92-2.92,2.92-7.67,0-10.6-2.93-2.93-7.67-2.93-10.6,0Z"/>
      <path class="cls-1" d="M1687.94,601.57c-2.93,2.93-2.93,7.67,0,10.6,2.93,2.93,7.67,2.93,10.6,0,2.92-2.92,2.92-7.67,0-10.6-2.93-2.93-7.67-2.93-10.6,0Z"/>
      <path class="cls-1" d="M1762.86,601.57c-2.93,2.93-2.93,7.67,0,10.6,2.93,2.93,7.67,2.93,10.6,0,2.92-2.92,2.92-7.67,0-10.6-2.93-2.93-7.67-2.93-10.6,0Z"/>
      <path class="cls-1" d="M1837.78,601.57c-2.93,2.93-2.93,7.67,0,10.6,2.93,2.93,7.67,2.93,10.6,0,2.93-2.92,2.93-7.67,0-10.6-2.93-2.93-7.67-2.93-10.6,0Z"/>
      <path class="cls-1" d="M1912.7,601.57c-2.93,2.93-2.93,7.67,0,10.6,2.93,2.93,7.67,2.93,10.6,0,2.93-2.92,2.93-7.67,0-10.6-2.93-2.93-7.67-2.93-10.6,0Z"/>
      <path class="cls-1" d="M938.72,601.57c-2.93,2.93-2.93,7.67,0,10.6,2.93,2.93,7.67,2.93,10.6,0,2.93-2.92,2.93-7.67,0-10.6-2.93-2.93-7.67-2.93-10.6,0Z"/>
      <path class="cls-1" d="M863.8,601.57c-2.93,2.93-2.93,7.67,0,10.6,2.93,2.93,7.67,2.93,10.6,0,2.93-2.92,2.93-7.67,0-10.6-2.93-2.93-7.67-2.93-10.6,0Z"/>
      <path class="cls-1" d="M788.87,601.57c-2.93,2.93-2.93,7.67,0,10.6,2.93,2.93,7.67,2.93,10.6,0,2.93-2.92,2.93-7.67,0-10.6-2.93-2.93-7.67-2.93-10.6,0Z"/>
      <path class="cls-1" d="M713.95,601.57c-2.93,2.93-2.93,7.67,0,10.6,2.93,2.93,7.67,2.93,10.6,0,2.93-2.92,2.93-7.67,0-10.6-2.93-2.93-7.67-2.93-10.6,0Z"/>
      <path class="cls-1" d="M639.03,601.57c-2.92,2.93-2.92,7.67,0,10.6,2.93,2.93,7.67,2.93,10.6,0,2.93-2.92,2.93-7.67,0-10.6-2.93-2.93-7.67-2.93-10.6,0Z"/>
      <path class="cls-1" d="M564.11,601.57c-2.92,2.93-2.92,7.67,0,10.6,2.93,2.93,7.67,2.93,10.6,0,2.92-2.92,2.92-7.67,0-10.6-2.93-2.93-7.67-2.93-10.6,0Z"/>
      <path class="cls-1" d="M489.19,601.57c-2.92,2.93-2.92,7.67,0,10.6,2.93,2.93,7.67,2.93,10.6,0,2.93-2.92,2.93-7.67,0-10.6s-7.67-2.93-10.6,0Z"/>
      <path class="cls-1" d="M414.26,601.57c-2.92,2.93-2.92,7.67,0,10.6,2.93,2.93,7.67,2.93,10.6,0,2.92-2.92,2.92-7.67,0-10.6-2.93-2.93-7.67-2.93-10.6,0Z"/>
      <path class="cls-1" d="M339.34,601.57c-2.92,2.93-2.92,7.67,0,10.6,2.93,2.93,7.67,2.93,10.6,0,2.92-2.92,2.92-7.67,0-10.6-2.93-2.93-7.67-2.93-10.6,0Z"/>
      <path class="cls-1" d="M264.42,601.57c-2.92,2.93-2.92,7.67,0,10.6,2.93,2.93,7.67,2.93,10.6,0,2.92-2.92,2.92-7.67,0-10.6-2.93-2.93-7.67-2.93-10.6,0Z"/>
      <path class="cls-1" d="M189.5,601.57c-2.92,2.93-2.92,7.67,0,10.6,2.93,2.93,7.67,2.93,10.6,0s2.92-7.67,0-10.6c-2.93-2.93-7.67-2.93-10.6,0Z"/>
      <path class="cls-1" d="M114.58,601.57c-2.92,2.93-2.92,7.67,0,10.6,2.93,2.93,7.67,2.93,10.6,0,2.92-2.92,2.92-7.67,0-10.6-2.93-2.93-7.67-2.93-10.6,0Z"/>
      <path class="cls-1" d="M39.65,601.57c-2.92,2.93-2.92,7.67,0,10.6,2.93,2.93,7.67,2.93,10.6,0,2.92-2.92,2.92-7.67,0-10.6-2.93-2.93-7.67-2.93-10.6,0Z"/>
      <path class="cls-1" d="M901.26,639.03c-2.92,2.93-2.92,7.67,0,10.6s7.67,2.93,10.6,0c2.93-2.92,2.93-7.67,0-10.6-2.93-2.92-7.67-2.92-10.6,0Z"/>
      <path class="cls-1" d="M826.33,639.03c-2.93,2.93-2.93,7.67,0,10.6,2.93,2.93,7.67,2.93,10.6,0,2.93-2.92,2.93-7.67,0-10.6-2.93-2.92-7.67-2.92-10.6,0Z"/>
      <path class="cls-1" d="M751.41,639.03c-2.92,2.93-2.92,7.67,0,10.6,2.93,2.93,7.67,2.93,10.6,0,2.93-2.92,2.93-7.67,0-10.6-2.93-2.92-7.67-2.92-10.6,0Z"/>
      <path class="cls-1" d="M676.49,639.03c-2.93,2.93-2.93,7.67,0,10.6,2.93,2.93,7.67,2.93,10.6,0,2.93-2.92,2.93-7.67,0-10.6-2.93-2.92-7.67-2.92-10.6,0Z"/>
      <path class="cls-1" d="M601.57,639.03c-2.93,2.93-2.93,7.67,0,10.6,2.93,2.93,7.67,2.93,10.6,0s2.92-7.67,0-10.6c-2.93-2.92-7.67-2.92-10.6,0Z"/>
      <path class="cls-1" d="M526.65,639.03c-2.93,2.93-2.93,7.67,0,10.6,2.93,2.93,7.67,2.93,10.6,0,2.92-2.92,2.92-7.67,0-10.6-2.93-2.92-7.67-2.92-10.6,0Z"/>
      <path class="cls-1" d="M451.72,639.03c-2.92,2.93-2.92,7.67,0,10.6,2.93,2.93,7.67,2.93,10.6,0,2.92-2.92,2.92-7.67,0-10.6-2.93-2.92-7.67-2.92-10.6,0Z"/>
      <path class="cls-1" d="M376.8,639.03c-2.93,2.93-2.93,7.67,0,10.6,2.93,2.93,7.67,2.93,10.6,0,2.93-2.92,2.93-7.67,0-10.6-2.93-2.92-7.67-2.92-10.6,0Z"/>
      <path class="cls-1" d="M301.88,639.03c-2.92,2.93-2.92,7.67,0,10.6,2.93,2.93,7.67,2.93,10.6,0,2.92-2.92,2.92-7.67,0-10.6-2.93-2.92-7.67-2.92-10.6,0Z"/>
      <path class="cls-1" d="M226.96,639.03c-2.92,2.93-2.92,7.67,0,10.6,2.93,2.93,7.67,2.93,10.6,0,2.92-2.92,2.92-7.67,0-10.6-2.93-2.92-7.67-2.92-10.6,0Z"/>
      <path class="cls-1" d="M152.04,639.03c-2.92,2.93-2.92,7.67,0,10.6,2.93,2.93,7.67,2.93,10.6,0,2.92-2.92,2.92-7.67,0-10.6-2.93-2.92-7.67-2.92-10.6,0Z"/>
      <path class="cls-1" d="M77.12,639.03c-2.92,2.93-2.92,7.67,0,10.6,2.93,2.93,7.67,2.93,10.6,0,2.92-2.92,2.92-7.67,0-10.6-2.93-2.92-7.67-2.92-10.6,0Z"/>
      <path class="cls-1" d="M2.19,639.03c-2.92,2.93-2.92,7.67,0,10.6,2.93,2.93,7.67,2.93,10.6,0,2.92-2.92,2.92-7.67,0-10.6-2.93-2.92-7.67-2.92-10.6,0Z"/>
      <path class="cls-1" d="M1051.1,639.03c-2.93,2.93-2.93,7.67,0,10.6,2.93,2.93,7.67,2.93,10.6,0,2.93-2.92,2.93-7.67,0-10.6-2.93-2.92-7.67-2.92-10.6,0Z"/>
      <path class="cls-1" d="M1126.02,639.03c-2.92,2.93-2.92,7.67,0,10.6s7.67,2.93,10.6,0c2.93-2.92,2.93-7.67,0-10.6-2.93-2.92-7.67-2.92-10.6,0Z"/>
      <path class="cls-1" d="M1200.94,639.03c-2.92,2.93-2.92,7.67,0,10.6s7.67,2.93,10.6,0c2.93-2.92,2.93-7.67,0-10.6-2.93-2.92-7.67-2.92-10.6,0Z"/>
      <path class="cls-1" d="M1275.87,639.03c-2.93,2.93-2.93,7.67,0,10.6,2.93,2.93,7.67,2.93,10.6,0,2.93-2.92,2.93-7.67,0-10.6-2.93-2.92-7.67-2.92-10.6,0Z"/>
      <path class="cls-1" d="M1350.79,639.03c-2.93,2.93-2.93,7.67,0,10.6,2.93,2.93,7.67,2.93,10.6,0,2.92-2.92,2.92-7.67,0-10.6-2.93-2.92-7.67-2.92-10.6,0Z"/>
      <path class="cls-1" d="M1425.71,639.03c-2.92,2.93-2.92,7.67,0,10.6s7.67,2.93,10.6,0,2.92-7.67,0-10.6c-2.93-2.92-7.67-2.92-10.6,0Z"/>
      <path class="cls-1" d="M1500.63,639.03c-2.93,2.93-2.93,7.67,0,10.6,2.93,2.93,7.67,2.93,10.6,0s2.92-7.67,0-10.6c-2.93-2.92-7.67-2.92-10.6,0Z"/>
      <path class="cls-1" d="M1575.55,639.03c-2.93,2.93-2.93,7.67,0,10.6,2.93,2.93,7.67,2.93,10.6,0,2.92-2.92,2.92-7.67,0-10.6-2.93-2.92-7.67-2.92-10.6,0Z"/>
      <path class="cls-1" d="M1650.48,639.03c-2.93,2.93-2.93,7.67,0,10.6,2.93,2.93,7.67,2.93,10.6,0,2.92-2.92,2.92-7.67,0-10.6-2.93-2.92-7.67-2.92-10.6,0Z"/>
      <path class="cls-1" d="M1725.4,639.03c-2.93,2.93-2.93,7.67,0,10.6,2.93,2.93,7.67,2.93,10.6,0,2.93-2.92,2.93-7.67,0-10.6-2.93-2.92-7.67-2.92-10.6,0Z"/>
      <path class="cls-1" d="M1800.32,639.03c-2.93,2.93-2.93,7.67,0,10.6,2.93,2.93,7.67,2.93,10.6,0,2.93-2.92,2.93-7.67,0-10.6-2.93-2.92-7.67-2.92-10.6,0Z"/>
      <path class="cls-1" d="M1875.24,639.03c-2.93,2.93-2.93,7.67,0,10.6,2.93,2.93,7.67,2.93,10.6,0,2.92-2.92,2.92-7.67,0-10.6-2.93-2.92-7.67-2.92-10.6,0Z"/>
      <path class="cls-1" d="M1950.16,639.03c-2.93,2.93-2.93,7.67,0,10.6,2.93,2.93,7.67,2.93,10.6,0,2.92-2.92,2.92-7.67,0-10.6-2.93-2.92-7.67-2.92-10.6,0Z"/>
      <path class="cls-1" d="M976.18,564.11c-2.92,2.93-2.92,7.67,0,10.6,2.93,2.93,7.67,2.93,10.6,0,2.93-2.92,2.93-7.67,0-10.6-2.93-2.92-7.67-2.92-10.6,0Z"/>
      <path class="cls-1" d="M1013.64,526.65c-2.93,2.93-2.93,7.67,0,10.6,2.93,2.93,7.67,2.93,10.6,0,2.93-2.92,2.93-7.67,0-10.6-2.93-2.92-7.67-2.92-10.6,0Z"/>
      <path class="cls-1" d="M1088.56,526.65c-2.92,2.93-2.92,7.67,0,10.6,2.93,2.93,7.67,2.93,10.6,0,2.93-2.92,2.93-7.67,0-10.6-2.93-2.92-7.67-2.92-10.6,0Z"/>
      <path class="cls-1" d="M1163.48,526.65c-2.92,2.93-2.92,7.67,0,10.6,2.93,2.93,7.67,2.93,10.6,0,2.93-2.92,2.93-7.67,0-10.6-2.93-2.92-7.67-2.92-10.6,0Z"/>
      <path class="cls-1" d="M1238.41,526.65c-2.92,2.93-2.92,7.67,0,10.6,2.93,2.93,7.67,2.93,10.6,0,2.93-2.92,2.93-7.67,0-10.6-2.93-2.92-7.67-2.92-10.6,0Z"/>
      <path class="cls-1" d="M1313.33,526.65c-2.92,2.93-2.92,7.67,0,10.6s7.67,2.93,10.6,0c2.93-2.92,2.93-7.67,0-10.6-2.93-2.92-7.67-2.92-10.6,0Z"/>
      <path class="cls-1" d="M1388.25,526.65c-2.93,2.93-2.93,7.67,0,10.6,2.93,2.93,7.67,2.93,10.6,0,2.93-2.92,2.93-7.67,0-10.6-2.93-2.92-7.67-2.92-10.6,0Z"/>
      <path class="cls-1" d="M1463.17,526.65c-2.93,2.93-2.93,7.67,0,10.6,2.93,2.93,7.67,2.93,10.6,0,2.92-2.92,2.92-7.67,0-10.6-2.93-2.92-7.67-2.92-10.6,0Z"/>
      <path class="cls-1" d="M1538.09,526.65c-2.93,2.93-2.93,7.67,0,10.6,2.93,2.93,7.67,2.93,10.6,0,2.92-2.92,2.92-7.67,0-10.6-2.93-2.92-7.67-2.92-10.6,0Z"/>
      <path class="cls-1" d="M1613.02,526.65c-2.93,2.93-2.93,7.67,0,10.6,2.93,2.93,7.67,2.93,10.6,0s2.92-7.67,0-10.6c-2.93-2.92-7.67-2.92-10.6,0Z"/>
      <path class="cls-1" d="M1687.94,526.65c-2.93,2.93-2.93,7.67,0,10.6,2.93,2.93,7.67,2.93,10.6,0,2.92-2.92,2.92-7.67,0-10.6-2.93-2.92-7.67-2.92-10.6,0Z"/>
      <path class="cls-1" d="M1762.86,526.65c-2.93,2.93-2.93,7.67,0,10.6,2.93,2.93,7.67,2.93,10.6,0,2.92-2.92,2.92-7.67,0-10.6-2.93-2.92-7.67-2.92-10.6,0Z"/>
      <path class="cls-1" d="M1837.78,526.65c-2.93,2.93-2.93,7.67,0,10.6,2.93,2.93,7.67,2.93,10.6,0,2.93-2.92,2.93-7.67,0-10.6-2.93-2.92-7.67-2.92-10.6,0Z"/>
      <path class="cls-1" d="M1912.7,526.65c-2.93,2.93-2.93,7.67,0,10.6,2.93,2.93,7.67,2.93,10.6,0,2.93-2.92,2.93-7.67,0-10.6-2.93-2.92-7.67-2.92-10.6,0Z"/>
      <path class="cls-1" d="M938.72,526.65c-2.93,2.93-2.93,7.67,0,10.6,2.93,2.93,7.67,2.93,10.6,0,2.93-2.92,2.93-7.67,0-10.6-2.93-2.92-7.67-2.92-10.6,0Z"/>
      <path class="cls-1" d="M863.8,526.65c-2.93,2.93-2.93,7.67,0,10.6,2.93,2.93,7.67,2.93,10.6,0,2.93-2.92,2.93-7.67,0-10.6-2.93-2.92-7.67-2.92-10.6,0Z"/>
      <path class="cls-1" d="M788.87,526.65c-2.93,2.93-2.93,7.67,0,10.6,2.93,2.93,7.67,2.93,10.6,0,2.93-2.92,2.93-7.67,0-10.6-2.93-2.92-7.67-2.92-10.6,0Z"/>
      <path class="cls-1" d="M713.95,526.65c-2.93,2.93-2.93,7.67,0,10.6,2.93,2.93,7.67,2.93,10.6,0,2.93-2.92,2.93-7.67,0-10.6-2.93-2.92-7.67-2.92-10.6,0Z"/>
      <path class="cls-1" d="M639.03,526.65c-2.92,2.93-2.92,7.67,0,10.6,2.93,2.93,7.67,2.93,10.6,0,2.93-2.92,2.93-7.67,0-10.6-2.93-2.92-7.67-2.92-10.6,0Z"/>
      <path class="cls-1" d="M564.11,526.65c-2.92,2.93-2.92,7.67,0,10.6,2.93,2.93,7.67,2.93,10.6,0,2.92-2.92,2.92-7.67,0-10.6-2.93-2.92-7.67-2.92-10.6,0Z"/>
      <path class="cls-1" d="M489.19,526.65c-2.92,2.93-2.92,7.67,0,10.6s7.67,2.93,10.6,0c2.93-2.92,2.93-7.67,0-10.6-2.93-2.92-7.67-2.92-10.6,0Z"/>
      <path class="cls-1" d="M414.26,526.65c-2.92,2.93-2.92,7.67,0,10.6,2.93,2.93,7.67,2.93,10.6,0,2.92-2.92,2.92-7.67,0-10.6-2.93-2.92-7.67-2.92-10.6,0Z"/>
      <path class="cls-1" d="M339.34,526.65c-2.92,2.93-2.92,7.67,0,10.6,2.93,2.93,7.67,2.93,10.6,0,2.92-2.92,2.92-7.67,0-10.6-2.93-2.92-7.67-2.92-10.6,0Z"/>
      <path class="cls-1" d="M264.42,526.65c-2.92,2.93-2.92,7.67,0,10.6,2.93,2.93,7.67,2.93,10.6,0,2.92-2.92,2.92-7.67,0-10.6-2.93-2.92-7.67-2.92-10.6,0Z"/>
      <path class="cls-1" d="M189.5,526.65c-2.92,2.93-2.92,7.67,0,10.6,2.93,2.93,7.67,2.93,10.6,0,2.92-2.92,2.92-7.67,0-10.6-2.93-2.92-7.67-2.92-10.6,0Z"/>
      <path class="cls-1" d="M114.58,526.65c-2.92,2.93-2.92,7.67,0,10.6,2.93,2.93,7.67,2.93,10.6,0,2.92-2.92,2.92-7.67,0-10.6-2.93-2.92-7.67-2.92-10.6,0Z"/>
      <path class="cls-1" d="M901.26,564.11c-2.92,2.93-2.92,7.67,0,10.6,2.93,2.93,7.67,2.93,10.6,0,2.93-2.92,2.93-7.67,0-10.6-2.93-2.92-7.67-2.92-10.6,0Z"/>
      <path class="cls-1" d="M826.33,564.11c-2.93,2.93-2.93,7.67,0,10.6,2.93,2.93,7.67,2.93,10.6,0,2.93-2.92,2.93-7.67,0-10.6-2.93-2.92-7.67-2.92-10.6,0Z"/>
      <path class="cls-1" d="M751.41,564.11c-2.92,2.93-2.92,7.67,0,10.6,2.93,2.93,7.67,2.93,10.6,0,2.93-2.92,2.93-7.67,0-10.6-2.93-2.92-7.67-2.92-10.6,0Z"/>
      <path class="cls-1" d="M676.49,564.11c-2.93,2.93-2.93,7.67,0,10.6,2.93,2.93,7.67,2.93,10.6,0,2.93-2.92,2.93-7.67,0-10.6-2.93-2.92-7.67-2.92-10.6,0Z"/>
      <path class="cls-1" d="M601.57,564.11c-2.93,2.93-2.93,7.67,0,10.6,2.93,2.93,7.67,2.93,10.6,0,2.92-2.92,2.92-7.67,0-10.6-2.93-2.92-7.67-2.92-10.6,0Z"/>
      <path class="cls-1" d="M526.65,564.11c-2.93,2.93-2.93,7.67,0,10.6,2.93,2.93,7.67,2.93,10.6,0,2.92-2.92,2.92-7.67,0-10.6-2.93-2.92-7.67-2.92-10.6,0Z"/>
      <path class="cls-1" d="M451.72,564.11c-2.92,2.93-2.92,7.67,0,10.6,2.93,2.93,7.67,2.93,10.6,0,2.92-2.92,2.92-7.67,0-10.6-2.93-2.92-7.67-2.92-10.6,0Z"/>
      <path class="cls-1" d="M376.8,564.11c-2.93,2.93-2.93,7.67,0,10.6,2.93,2.93,7.67,2.93,10.6,0,2.93-2.92,2.93-7.67,0-10.6-2.93-2.92-7.67-2.92-10.6,0Z"/>
      <path class="cls-1" d="M301.88,564.11c-2.92,2.93-2.92,7.67,0,10.6,2.93,2.93,7.67,2.93,10.6,0,2.92-2.92,2.92-7.67,0-10.6-2.93-2.92-7.67-2.92-10.6,0Z"/>
      <path class="cls-1" d="M226.96,564.11c-2.92,2.93-2.92,7.67,0,10.6,2.93,2.93,7.67,2.93,10.6,0,2.92-2.92,2.92-7.67,0-10.6-2.93-2.92-7.67-2.92-10.6,0Z"/>
      <path class="cls-1" d="M152.04,564.11c-2.92,2.93-2.92,7.67,0,10.6,2.93,2.93,7.67,2.93,10.6,0,2.92-2.92,2.92-7.67,0-10.6-2.93-2.92-7.67-2.92-10.6,0Z"/>
      <path class="cls-1" d="M77.12,564.11c-2.92,2.93-2.92,7.67,0,10.6,2.93,2.93,7.67,2.93,10.6,0,2.92-2.92,2.92-7.67,0-10.6-2.93-2.92-7.67-2.92-10.6,0Z"/>
      <path class="cls-1" d="M1051.1,564.11c-2.93,2.93-2.93,7.67,0,10.6,2.93,2.93,7.67,2.93,10.6,0,2.93-2.92,2.93-7.67,0-10.6-2.93-2.92-7.67-2.92-10.6,0Z"/>
      <path class="cls-1" d="M1126.02,564.11c-2.92,2.93-2.92,7.67,0,10.6,2.93,2.93,7.67,2.93,10.6,0,2.93-2.92,2.93-7.67,0-10.6-2.93-2.92-7.67-2.92-10.6,0Z"/>
      <path class="cls-1" d="M1200.94,564.11c-2.92,2.93-2.92,7.67,0,10.6,2.93,2.93,7.67,2.93,10.6,0,2.93-2.92,2.93-7.67,0-10.6-2.93-2.92-7.67-2.92-10.6,0Z"/>
      <path class="cls-1" d="M1275.87,564.11c-2.93,2.93-2.93,7.67,0,10.6,2.93,2.93,7.67,2.93,10.6,0,2.93-2.92,2.93-7.67,0-10.6-2.93-2.92-7.67-2.92-10.6,0Z"/>
      <path class="cls-1" d="M1350.79,564.11c-2.93,2.93-2.93,7.67,0,10.6,2.93,2.93,7.67,2.93,10.6,0s2.92-7.67,0-10.6c-2.93-2.92-7.67-2.92-10.6,0Z"/>
      <path class="cls-1" d="M1425.71,564.11c-2.92,2.93-2.92,7.67,0,10.6,2.93,2.93,7.67,2.93,10.6,0,2.92-2.92,2.92-7.67,0-10.6-2.93-2.92-7.67-2.92-10.6,0Z"/>
      <path class="cls-1" d="M1500.63,564.11c-2.93,2.93-2.93,7.67,0,10.6,2.93,2.93,7.67,2.93,10.6,0,2.92-2.92,2.92-7.67,0-10.6-2.93-2.92-7.67-2.92-10.6,0Z"/>
      <path class="cls-1" d="M1575.55,564.11c-2.93,2.93-2.93,7.67,0,10.6,2.93,2.93,7.67,2.93,10.6,0,2.92-2.92,2.92-7.67,0-10.6-2.93-2.92-7.67-2.92-10.6,0Z"/>
      <path class="cls-1" d="M1650.48,564.11c-2.93,2.93-2.93,7.67,0,10.6,2.93,2.93,7.67,2.93,10.6,0s2.92-7.67,0-10.6c-2.93-2.92-7.67-2.92-10.6,0Z"/>
      <path class="cls-1" d="M1725.4,564.11c-2.93,2.93-2.93,7.67,0,10.6,2.93,2.93,7.67,2.93,10.6,0,2.93-2.92,2.93-7.67,0-10.6-2.93-2.92-7.67-2.92-10.6,0Z"/>
      <path class="cls-1" d="M1800.32,564.11c-2.93,2.93-2.93,7.67,0,10.6,2.93,2.93,7.67,2.93,10.6,0,2.93-2.92,2.93-7.67,0-10.6-2.93-2.92-7.67-2.92-10.6,0Z"/>
      <path class="cls-1" d="M1875.24,564.11c-2.93,2.93-2.93,7.67,0,10.6,2.93,2.93,7.67,2.93,10.6,0,2.92-2.92,2.92-7.67,0-10.6-2.93-2.92-7.67-2.92-10.6,0Z"/>
      <path class="cls-1" d="M1950.16,564.11c-2.93,2.93-2.93,7.67,0,10.6,2.93,2.93,7.67,2.93,10.6,0,2.92-2.92,2.92-7.67,0-10.6-2.93-2.92-7.67-2.92-10.6,0Z"/>
      <path class="cls-1" d="M976.18,489.19c-2.92,2.93-2.92,7.67,0,10.6,2.93,2.93,7.67,2.93,10.6,0,2.93-2.93,2.93-7.67,0-10.6-2.93-2.93-7.67-2.93-10.6,0Z"/>
      <path class="cls-1" d="M1013.64,451.73c-2.93,2.93-2.93,7.67,0,10.6,2.93,2.93,7.67,2.93,10.6,0,2.93-2.92,2.93-7.67,0-10.6-2.93-2.92-7.67-2.92-10.6,0Z"/>
      <path class="cls-1" d="M1088.56,451.73c-2.92,2.93-2.92,7.67,0,10.6s7.67,2.93,10.6,0c2.93-2.92,2.93-7.67,0-10.6-2.93-2.92-7.67-2.92-10.6,0Z"/>
      <path class="cls-1" d="M1163.48,451.73c-2.92,2.93-2.92,7.67,0,10.6s7.67,2.93,10.6,0c2.93-2.92,2.93-7.67,0-10.6-2.93-2.92-7.67-2.92-10.6,0Z"/>
      <path class="cls-1" d="M1238.41,451.73c-2.92,2.93-2.92,7.67,0,10.6,2.93,2.93,7.67,2.93,10.6,0,2.93-2.92,2.93-7.67,0-10.6-2.93-2.92-7.67-2.92-10.6,0Z"/>
      <path class="cls-1" d="M1313.33,451.73c-2.92,2.93-2.92,7.67,0,10.6,2.93,2.93,7.67,2.93,10.6,0,2.93-2.92,2.93-7.67,0-10.6-2.93-2.92-7.67-2.92-10.6,0Z"/>
      <path class="cls-1" d="M1388.25,451.73c-2.93,2.93-2.93,7.67,0,10.6,2.93,2.93,7.67,2.93,10.6,0,2.93-2.92,2.93-7.67,0-10.6-2.93-2.92-7.67-2.92-10.6,0Z"/>
      <path class="cls-1" d="M1463.17,451.73c-2.93,2.93-2.93,7.67,0,10.6,2.93,2.93,7.67,2.93,10.6,0s2.92-7.67,0-10.6c-2.93-2.92-7.67-2.92-10.6,0Z"/>
      <path class="cls-1" d="M1538.09,451.73c-2.93,2.93-2.93,7.67,0,10.6,2.93,2.93,7.67,2.93,10.6,0s2.92-7.67,0-10.6c-2.93-2.92-7.67-2.92-10.6,0Z"/>
      <path class="cls-1" d="M1613.02,451.73c-2.93,2.93-2.93,7.67,0,10.6,2.93,2.93,7.67,2.93,10.6,0,2.92-2.92,2.92-7.67,0-10.6-2.93-2.92-7.67-2.92-10.6,0Z"/>
      <path class="cls-1" d="M1687.94,451.73c-2.93,2.93-2.93,7.67,0,10.6,2.93,2.93,7.67,2.93,10.6,0s2.92-7.67,0-10.6c-2.93-2.92-7.67-2.92-10.6,0Z"/>
      <path class="cls-1" d="M1762.86,451.73c-2.93,2.93-2.93,7.67,0,10.6,2.93,2.93,7.67,2.93,10.6,0s2.92-7.67,0-10.6c-2.93-2.92-7.67-2.92-10.6,0Z"/>
      <path class="cls-1" d="M1837.78,451.73c-2.93,2.93-2.93,7.67,0,10.6,2.93,2.93,7.67,2.93,10.6,0,2.93-2.92,2.93-7.67,0-10.6-2.93-2.92-7.67-2.92-10.6,0Z"/>
      <path class="cls-1" d="M1912.7,451.73c-2.93,2.93-2.93,7.67,0,10.6,2.93,2.93,7.67,2.93,10.6,0,2.93-2.92,2.93-7.67,0-10.6-2.93-2.92-7.67-2.92-10.6,0Z"/>
      <path class="cls-1" d="M938.72,451.73c-2.93,2.93-2.93,7.67,0,10.6,2.93,2.93,7.67,2.93,10.6,0,2.93-2.92,2.93-7.67,0-10.6-2.93-2.92-7.67-2.92-10.6,0Z"/>
      <path class="cls-1" d="M863.8,451.73c-2.93,2.93-2.93,7.67,0,10.6,2.93,2.93,7.67,2.93,10.6,0,2.93-2.92,2.93-7.67,0-10.6-2.93-2.92-7.67-2.92-10.6,0Z"/>
      <path class="cls-1" d="M788.87,451.73c-2.93,2.93-2.93,7.67,0,10.6,2.93,2.93,7.67,2.93,10.6,0,2.93-2.92,2.93-7.67,0-10.6-2.93-2.92-7.67-2.92-10.6,0Z"/>
      <path class="cls-1" d="M713.95,451.73c-2.93,2.93-2.93,7.67,0,10.6,2.93,2.93,7.67,2.93,10.6,0,2.93-2.92,2.93-7.67,0-10.6-2.93-2.92-7.67-2.92-10.6,0Z"/>
      <path class="cls-1" d="M639.03,451.73c-2.92,2.93-2.92,7.67,0,10.6,2.93,2.93,7.67,2.93,10.6,0,2.93-2.92,2.93-7.67,0-10.6-2.93-2.92-7.67-2.92-10.6,0Z"/>
      <path class="cls-1" d="M564.11,451.73c-2.92,2.93-2.92,7.67,0,10.6,2.93,2.93,7.67,2.93,10.6,0s2.92-7.67,0-10.6c-2.93-2.92-7.67-2.92-10.6,0Z"/>
      <path class="cls-1" d="M489.19,451.73c-2.92,2.93-2.92,7.67,0,10.6,2.93,2.93,7.67,2.93,10.6,0,2.93-2.92,2.93-7.67,0-10.6-2.93-2.92-7.67-2.92-10.6,0Z"/>
      <path class="cls-1" d="M414.26,451.73c-2.92,2.93-2.92,7.67,0,10.6s7.67,2.93,10.6,0c2.92-2.92,2.92-7.67,0-10.6-2.93-2.92-7.67-2.92-10.6,0Z"/>
      <path class="cls-1" d="M339.34,451.73c-2.92,2.93-2.92,7.67,0,10.6,2.93,2.93,7.67,2.93,10.6,0,2.92-2.92,2.92-7.67,0-10.6-2.93-2.92-7.67-2.92-10.6,0Z"/>
      <path class="cls-1" d="M264.42,451.73c-2.92,2.93-2.92,7.67,0,10.6,2.93,2.93,7.67,2.93,10.6,0,2.92-2.92,2.92-7.67,0-10.6-2.93-2.92-7.67-2.92-10.6,0Z"/>
      <path class="cls-1" d="M189.5,451.73c-2.92,2.93-2.92,7.67,0,10.6,2.93,2.93,7.67,2.93,10.6,0,2.92-2.92,2.92-7.67,0-10.6-2.93-2.92-7.67-2.92-10.6,0Z"/>
      <path class="cls-1" d="M114.58,451.73c-2.92,2.93-2.92,7.67,0,10.6,2.93,2.93,7.67,2.93,10.6,0s2.92-7.67,0-10.6c-2.93-2.92-7.67-2.92-10.6,0Z"/>
      <path class="cls-1" d="M901.26,489.19c-2.92,2.93-2.92,7.67,0,10.6,2.93,2.93,7.67,2.93,10.6,0,2.93-2.93,2.93-7.67,0-10.6s-7.67-2.93-10.6,0Z"/>
      <path class="cls-1" d="M826.33,489.19c-2.93,2.93-2.93,7.67,0,10.6,2.93,2.93,7.67,2.93,10.6,0s2.93-7.67,0-10.6c-2.93-2.93-7.67-2.93-10.6,0Z"/>
      <path class="cls-1" d="M751.41,489.19c-2.92,2.93-2.92,7.67,0,10.6,2.93,2.93,7.67,2.93,10.6,0,2.93-2.93,2.93-7.67,0-10.6-2.93-2.93-7.67-2.93-10.6,0Z"/>
      <path class="cls-1" d="M676.49,489.19c-2.93,2.93-2.93,7.67,0,10.6s7.67,2.93,10.6,0c2.93-2.93,2.93-7.67,0-10.6-2.93-2.93-7.67-2.93-10.6,0Z"/>
      <path class="cls-1" d="M601.57,489.19c-2.93,2.93-2.93,7.67,0,10.6,2.93,2.93,7.67,2.93,10.6,0,2.92-2.93,2.92-7.67,0-10.6-2.93-2.93-7.67-2.93-10.6,0Z"/>
      <path class="cls-1" d="M526.65,489.19c-2.93,2.93-2.93,7.67,0,10.6,2.93,2.93,7.67,2.93,10.6,0,2.92-2.93,2.92-7.67,0-10.6-2.93-2.93-7.67-2.93-10.6,0Z"/>
      <path class="cls-1" d="M451.72,489.19c-2.92,2.93-2.92,7.67,0,10.6,2.93,2.93,7.67,2.93,10.6,0,2.92-2.93,2.92-7.67,0-10.6-2.93-2.93-7.67-2.93-10.6,0Z"/>
      <path class="cls-1" d="M376.8,489.19c-2.93,2.93-2.93,7.67,0,10.6,2.93,2.93,7.67,2.93,10.6,0,2.93-2.93,2.93-7.67,0-10.6s-7.67-2.93-10.6,0Z"/>
      <path class="cls-1" d="M301.88,489.19c-2.92,2.93-2.92,7.67,0,10.6,2.93,2.93,7.67,2.93,10.6,0,2.92-2.93,2.92-7.67,0-10.6-2.93-2.93-7.67-2.93-10.6,0Z"/>
      <path class="cls-1" d="M226.96,489.19c-2.92,2.93-2.92,7.67,0,10.6,2.93,2.93,7.67,2.93,10.6,0,2.92-2.93,2.92-7.67,0-10.6-2.93-2.93-7.67-2.93-10.6,0Z"/>
      <path class="cls-1" d="M152.04,489.19c-2.92,2.93-2.92,7.67,0,10.6,2.93,2.93,7.67,2.93,10.6,0,2.92-2.93,2.92-7.67,0-10.6-2.93-2.93-7.67-2.93-10.6,0Z"/>
      <path class="cls-1" d="M77.12,489.19c-2.92,2.93-2.92,7.67,0,10.6,2.93,2.93,7.67,2.93,10.6,0,2.92-2.93,2.92-7.67,0-10.6-2.93-2.93-7.67-2.93-10.6,0Z"/>
      <path class="cls-1" d="M1051.1,489.19c-2.93,2.93-2.93,7.67,0,10.6,2.93,2.93,7.67,2.93,10.6,0,2.93-2.93,2.93-7.67,0-10.6-2.93-2.93-7.67-2.93-10.6,0Z"/>
      <path class="cls-1" d="M1126.02,489.19c-2.92,2.93-2.92,7.67,0,10.6,2.93,2.93,7.67,2.93,10.6,0s2.93-7.67,0-10.6c-2.93-2.93-7.67-2.93-10.6,0Z"/>
      <path class="cls-1" d="M1200.94,489.19c-2.92,2.93-2.92,7.67,0,10.6,2.93,2.93,7.67,2.93,10.6,0,2.93-2.93,2.93-7.67,0-10.6-2.93-2.93-7.67-2.93-10.6,0Z"/>
      <path class="cls-1" d="M1275.87,489.19c-2.93,2.93-2.93,7.67,0,10.6,2.93,2.93,7.67,2.93,10.6,0,2.93-2.93,2.93-7.67,0-10.6-2.93-2.93-7.67-2.93-10.6,0Z"/>
      <path class="cls-1" d="M1350.79,489.19c-2.93,2.93-2.93,7.67,0,10.6,2.93,2.93,7.67,2.93,10.6,0,2.92-2.93,2.92-7.67,0-10.6-2.93-2.93-7.67-2.93-10.6,0Z"/>
      <path class="cls-1" d="M1425.71,489.19c-2.92,2.93-2.92,7.67,0,10.6,2.93,2.93,7.67,2.93,10.6,0,2.92-2.93,2.92-7.67,0-10.6-2.93-2.93-7.67-2.93-10.6,0Z"/>
      <path class="cls-1" d="M1500.63,489.19c-2.93,2.93-2.93,7.67,0,10.6s7.67,2.93,10.6,0c2.92-2.93,2.92-7.67,0-10.6-2.93-2.93-7.67-2.93-10.6,0Z"/>
      <path class="cls-1" d="M1575.55,489.19c-2.93,2.93-2.93,7.67,0,10.6,2.93,2.93,7.67,2.93,10.6,0,2.92-2.93,2.92-7.67,0-10.6-2.93-2.93-7.67-2.93-10.6,0Z"/>
      <path class="cls-1" d="M1650.48,489.19c-2.93,2.93-2.93,7.67,0,10.6,2.93,2.93,7.67,2.93,10.6,0,2.92-2.93,2.92-7.67,0-10.6-2.93-2.93-7.67-2.93-10.6,0Z"/>
      <path class="cls-1" d="M1725.4,489.19c-2.93,2.93-2.93,7.67,0,10.6,2.93,2.93,7.67,2.93,10.6,0,2.93-2.93,2.93-7.67,0-10.6-2.93-2.93-7.67-2.93-10.6,0Z"/>
      <path class="cls-1" d="M1800.32,489.19c-2.93,2.93-2.93,7.67,0,10.6,2.93,2.93,7.67,2.93,10.6,0,2.93-2.93,2.93-7.67,0-10.6-2.93-2.93-7.67-2.93-10.6,0Z"/>
      <path class="cls-1" d="M1875.24,489.19c-2.93,2.93-2.93,7.67,0,10.6,2.93,2.93,7.67,2.93,10.6,0,2.92-2.93,2.92-7.67,0-10.6-2.93-2.93-7.67-2.93-10.6,0Z"/>
      <path class="cls-1" d="M1950.16,489.19c-2.93,2.93-2.93,7.67,0,10.6,2.93,2.93,7.67,2.93,10.6,0,2.92-2.93,2.92-7.67,0-10.6-2.93-2.93-7.67-2.93-10.6,0Z"/>
      <path class="cls-1" d="M976.18,414.26c-2.92,2.93-2.92,7.67,0,10.6,2.93,2.93,7.67,2.93,10.6,0,2.93-2.93,2.93-7.67,0-10.6-2.93-2.93-7.67-2.93-10.6,0Z"/>
      <path class="cls-1" d="M1013.64,376.8c-2.93,2.93-2.93,7.67,0,10.6,2.93,2.93,7.67,2.93,10.6,0,2.93-2.93,2.93-7.67,0-10.6-2.93-2.92-7.67-2.92-10.6,0Z"/>
      <path class="cls-1" d="M1088.56,376.8c-2.92,2.93-2.92,7.67,0,10.6,2.93,2.93,7.67,2.93,10.6,0,2.93-2.93,2.93-7.67,0-10.6-2.93-2.92-7.67-2.92-10.6,0Z"/>
      <path class="cls-1" d="M1163.48,376.8c-2.92,2.93-2.92,7.67,0,10.6,2.93,2.93,7.67,2.93,10.6,0,2.93-2.93,2.93-7.67,0-10.6-2.93-2.92-7.67-2.92-10.6,0Z"/>
      <path class="cls-1" d="M1238.41,376.8c-2.92,2.93-2.92,7.67,0,10.6,2.93,2.93,7.67,2.93,10.6,0,2.93-2.93,2.93-7.67,0-10.6-2.93-2.92-7.67-2.92-10.6,0Z"/>
      <path class="cls-1" d="M1313.33,376.8c-2.92,2.93-2.92,7.67,0,10.6,2.93,2.93,7.67,2.93,10.6,0,2.93-2.93,2.93-7.67,0-10.6-2.93-2.92-7.67-2.92-10.6,0Z"/>
      <path class="cls-1" d="M1388.25,376.8c-2.93,2.93-2.93,7.67,0,10.6,2.93,2.93,7.67,2.93,10.6,0,2.93-2.93,2.93-7.67,0-10.6-2.93-2.92-7.67-2.92-10.6,0Z"/>
      <path class="cls-1" d="M1463.17,376.8c-2.93,2.93-2.93,7.67,0,10.6,2.93,2.93,7.67,2.93,10.6,0,2.92-2.93,2.92-7.67,0-10.6-2.93-2.92-7.67-2.92-10.6,0Z"/>
      <path class="cls-1" d="M1538.09,376.8c-2.93,2.93-2.93,7.67,0,10.6,2.93,2.93,7.67,2.93,10.6,0,2.92-2.93,2.92-7.67,0-10.6-2.93-2.92-7.67-2.92-10.6,0Z"/>
      <path class="cls-1" d="M1613.02,376.8c-2.93,2.93-2.93,7.67,0,10.6,2.93,2.93,7.67,2.93,10.6,0,2.92-2.93,2.92-7.67,0-10.6-2.93-2.92-7.67-2.92-10.6,0Z"/>
      <path class="cls-1" d="M1687.94,376.8c-2.93,2.93-2.93,7.67,0,10.6,2.93,2.93,7.67,2.93,10.6,0,2.92-2.93,2.92-7.67,0-10.6-2.93-2.92-7.67-2.92-10.6,0Z"/>
      <path class="cls-1" d="M1762.86,376.8c-2.93,2.93-2.93,7.67,0,10.6s7.67,2.93,10.6,0c2.92-2.93,2.92-7.67,0-10.6-2.93-2.92-7.67-2.92-10.6,0Z"/>
      <path class="cls-1" d="M1837.78,376.8c-2.93,2.93-2.93,7.67,0,10.6,2.93,2.93,7.67,2.93,10.6,0,2.93-2.93,2.93-7.67,0-10.6-2.93-2.92-7.67-2.92-10.6,0Z"/>
      <path class="cls-1" d="M938.72,376.8c-2.93,2.93-2.93,7.67,0,10.6,2.93,2.93,7.67,2.93,10.6,0,2.93-2.93,2.93-7.67,0-10.6-2.93-2.92-7.67-2.92-10.6,0Z"/>
      <path class="cls-1" d="M863.8,376.8c-2.93,2.93-2.93,7.67,0,10.6s7.67,2.93,10.6,0,2.93-7.67,0-10.6c-2.93-2.92-7.67-2.92-10.6,0Z"/>
      <path class="cls-1" d="M788.87,376.8c-2.93,2.93-2.93,7.67,0,10.6,2.93,2.93,7.67,2.93,10.6,0,2.93-2.93,2.93-7.67,0-10.6-2.93-2.92-7.67-2.92-10.6,0Z"/>
      <path class="cls-1" d="M713.95,376.8c-2.93,2.93-2.93,7.67,0,10.6,2.93,2.93,7.67,2.93,10.6,0,2.93-2.93,2.93-7.67,0-10.6-2.93-2.92-7.67-2.92-10.6,0Z"/>
      <path class="cls-1" d="M639.03,376.8c-2.92,2.93-2.92,7.67,0,10.6,2.93,2.93,7.67,2.93,10.6,0s2.93-7.67,0-10.6c-2.93-2.92-7.67-2.92-10.6,0Z"/>
      <path class="cls-1" d="M564.11,376.8c-2.92,2.93-2.92,7.67,0,10.6,2.93,2.93,7.67,2.93,10.6,0,2.92-2.93,2.92-7.67,0-10.6-2.93-2.92-7.67-2.92-10.6,0Z"/>
      <path class="cls-1" d="M489.19,376.8c-2.92,2.93-2.92,7.67,0,10.6,2.93,2.93,7.67,2.93,10.6,0,2.93-2.93,2.93-7.67,0-10.6-2.93-2.92-7.67-2.92-10.6,0Z"/>
      <path class="cls-1" d="M414.26,376.8c-2.92,2.93-2.92,7.67,0,10.6,2.93,2.93,7.67,2.93,10.6,0,2.92-2.93,2.92-7.67,0-10.6-2.93-2.92-7.67-2.92-10.6,0Z"/>
      <path class="cls-1" d="M339.34,376.8c-2.92,2.93-2.92,7.67,0,10.6,2.93,2.93,7.67,2.93,10.6,0,2.92-2.93,2.92-7.67,0-10.6-2.93-2.92-7.67-2.92-10.6,0Z"/>
      <path class="cls-1" d="M264.42,376.8c-2.92,2.93-2.92,7.67,0,10.6,2.93,2.93,7.67,2.93,10.6,0,2.92-2.93,2.92-7.67,0-10.6-2.93-2.92-7.67-2.92-10.6,0Z"/>
      <path class="cls-1" d="M189.5,376.8c-2.92,2.93-2.92,7.67,0,10.6,2.93,2.93,7.67,2.93,10.6,0,2.92-2.93,2.92-7.67,0-10.6-2.93-2.92-7.67-2.92-10.6,0Z"/>
      <path class="cls-1" d="M901.26,414.26c-2.92,2.93-2.92,7.67,0,10.6,2.93,2.93,7.67,2.93,10.6,0,2.93-2.93,2.93-7.67,0-10.6-2.93-2.93-7.67-2.93-10.6,0Z"/>
      <path class="cls-1" d="M826.33,414.26c-2.93,2.93-2.93,7.67,0,10.6s7.67,2.93,10.6,0c2.93-2.93,2.93-7.67,0-10.6-2.93-2.93-7.67-2.93-10.6,0Z"/>
      <path class="cls-1" d="M751.41,414.26c-2.92,2.93-2.92,7.67,0,10.6,2.93,2.93,7.67,2.93,10.6,0,2.93-2.93,2.93-7.67,0-10.6-2.93-2.93-7.67-2.93-10.6,0Z"/>
      <path class="cls-1" d="M676.49,414.26c-2.93,2.93-2.93,7.67,0,10.6,2.93,2.93,7.67,2.93,10.6,0s2.93-7.67,0-10.6c-2.93-2.93-7.67-2.93-10.6,0Z"/>
      <path class="cls-1" d="M601.57,414.26c-2.93,2.93-2.93,7.67,0,10.6,2.93,2.93,7.67,2.93,10.6,0,2.92-2.93,2.92-7.67,0-10.6-2.93-2.93-7.67-2.93-10.6,0Z"/>
      <path class="cls-1" d="M526.65,414.26c-2.93,2.93-2.93,7.67,0,10.6,2.93,2.93,7.67,2.93,10.6,0,2.92-2.93,2.92-7.67,0-10.6-2.93-2.93-7.67-2.93-10.6,0Z"/>
      <path class="cls-1" d="M451.72,414.26c-2.92,2.93-2.92,7.67,0,10.6,2.93,2.93,7.67,2.93,10.6,0,2.92-2.93,2.92-7.67,0-10.6-2.93-2.93-7.67-2.93-10.6,0Z"/>
      <path class="cls-1" d="M376.8,414.26c-2.93,2.93-2.93,7.67,0,10.6s7.67,2.93,10.6,0c2.93-2.93,2.93-7.67,0-10.6-2.93-2.93-7.67-2.93-10.6,0Z"/>
      <path class="cls-1" d="M301.88,414.26c-2.92,2.93-2.92,7.67,0,10.6,2.93,2.93,7.67,2.93,10.6,0,2.92-2.93,2.92-7.67,0-10.6-2.93-2.93-7.67-2.93-10.6,0Z"/>
      <path class="cls-1" d="M226.96,414.26c-2.92,2.93-2.92,7.67,0,10.6,2.93,2.93,7.67,2.93,10.6,0,2.92-2.93,2.92-7.67,0-10.6-2.93-2.93-7.67-2.93-10.6,0Z"/>
      <path class="cls-1" d="M152.04,414.26c-2.92,2.93-2.92,7.67,0,10.6,2.93,2.93,7.67,2.93,10.6,0,2.92-2.93,2.92-7.67,0-10.6-2.93-2.93-7.67-2.93-10.6,0Z"/>
      <path class="cls-1" d="M1051.1,414.26c-2.93,2.93-2.93,7.67,0,10.6,2.93,2.93,7.67,2.93,10.6,0,2.93-2.93,2.93-7.67,0-10.6-2.93-2.93-7.67-2.93-10.6,0Z"/>
      <path class="cls-1" d="M1126.02,414.26c-2.92,2.93-2.92,7.67,0,10.6,2.93,2.93,7.67,2.93,10.6,0,2.93-2.93,2.93-7.67,0-10.6-2.93-2.93-7.67-2.93-10.6,0Z"/>
      <path class="cls-1" d="M1200.94,414.26c-2.92,2.93-2.92,7.67,0,10.6,2.93,2.93,7.67,2.93,10.6,0s2.93-7.67,0-10.6c-2.93-2.93-7.67-2.93-10.6,0Z"/>
      <path class="cls-1" d="M1275.87,414.26c-2.93,2.93-2.93,7.67,0,10.6,2.93,2.93,7.67,2.93,10.6,0,2.93-2.93,2.93-7.67,0-10.6-2.93-2.93-7.67-2.93-10.6,0Z"/>
      <path class="cls-1" d="M1350.79,414.26c-2.93,2.93-2.93,7.67,0,10.6,2.93,2.93,7.67,2.93,10.6,0,2.92-2.93,2.92-7.67,0-10.6-2.93-2.93-7.67-2.93-10.6,0Z"/>
      <path class="cls-1" d="M1425.71,414.26c-2.92,2.93-2.92,7.67,0,10.6,2.93,2.93,7.67,2.93,10.6,0,2.92-2.93,2.92-7.67,0-10.6-2.93-2.93-7.67-2.93-10.6,0Z"/>
      <path class="cls-1" d="M1500.63,414.26c-2.93,2.93-2.93,7.67,0,10.6,2.93,2.93,7.67,2.93,10.6,0,2.92-2.93,2.92-7.67,0-10.6-2.93-2.93-7.67-2.93-10.6,0Z"/>
      <path class="cls-1" d="M1575.55,414.26c-2.93,2.93-2.93,7.67,0,10.6,2.93,2.93,7.67,2.93,10.6,0,2.92-2.93,2.92-7.67,0-10.6-2.93-2.93-7.67-2.93-10.6,0Z"/>
      <path class="cls-1" d="M1650.48,414.26c-2.93,2.93-2.93,7.67,0,10.6s7.67,2.93,10.6,0c2.92-2.93,2.92-7.67,0-10.6-2.93-2.93-7.67-2.93-10.6,0Z"/>
      <path class="cls-1" d="M1725.4,414.26c-2.93,2.93-2.93,7.67,0,10.6s7.67,2.93,10.6,0,2.93-7.67,0-10.6c-2.93-2.93-7.67-2.93-10.6,0Z"/>
      <path class="cls-1" d="M1800.32,414.26c-2.93,2.93-2.93,7.67,0,10.6,2.93,2.93,7.67,2.93,10.6,0s2.93-7.67,0-10.6c-2.93-2.93-7.67-2.93-10.6,0Z"/>
      <path class="cls-1" d="M1875.24,414.26c-2.93,2.93-2.93,7.67,0,10.6,2.93,2.93,7.67,2.93,10.6,0,2.92-2.93,2.92-7.67,0-10.6-2.93-2.93-7.67-2.93-10.6,0Z"/>
      <path class="cls-1" d="M976.18,339.34c-2.92,2.93-2.92,7.67,0,10.6,2.93,2.93,7.67,2.93,10.6,0,2.93-2.93,2.93-7.67,0-10.6-2.93-2.93-7.67-2.93-10.6,0Z"/>
      <path class="cls-1" d="M1013.64,301.88c-2.93,2.93-2.93,7.67,0,10.6s7.67,2.93,10.6,0c2.93-2.93,2.93-7.67,0-10.6-2.93-2.93-7.67-2.93-10.6,0Z"/>
      <path class="cls-1" d="M1088.56,301.88c-2.92,2.93-2.92,7.67,0,10.6,2.93,2.93,7.67,2.93,10.6,0,2.93-2.93,2.93-7.67,0-10.6-2.93-2.93-7.67-2.93-10.6,0Z"/>
      <path class="cls-1" d="M1163.48,301.88c-2.92,2.93-2.92,7.67,0,10.6,2.93,2.93,7.67,2.93,10.6,0,2.93-2.93,2.93-7.67,0-10.6-2.93-2.93-7.67-2.93-10.6,0Z"/>
      <path class="cls-1" d="M1238.41,301.88c-2.92,2.93-2.92,7.67,0,10.6,2.93,2.93,7.67,2.93,10.6,0,2.93-2.93,2.93-7.67,0-10.6-2.93-2.93-7.67-2.93-10.6,0Z"/>
      <path class="cls-1" d="M1313.33,301.88c-2.92,2.93-2.92,7.67,0,10.6,2.93,2.93,7.67,2.93,10.6,0,2.93-2.93,2.93-7.67,0-10.6-2.93-2.93-7.67-2.93-10.6,0Z"/>
      <path class="cls-1" d="M1388.25,301.88c-2.93,2.93-2.93,7.67,0,10.6,2.93,2.93,7.67,2.93,10.6,0,2.93-2.93,2.93-7.67,0-10.6-2.93-2.93-7.67-2.93-10.6,0Z"/>
      <path class="cls-1" d="M1463.17,301.88c-2.93,2.93-2.93,7.67,0,10.6,2.93,2.93,7.67,2.93,10.6,0,2.92-2.93,2.92-7.67,0-10.6-2.93-2.93-7.67-2.93-10.6,0Z"/>
      <path class="cls-1" d="M1538.09,301.88c-2.93,2.93-2.93,7.67,0,10.6,2.93,2.93,7.67,2.93,10.6,0,2.92-2.93,2.92-7.67,0-10.6-2.93-2.93-7.67-2.93-10.6,0Z"/>
      <path class="cls-1" d="M1613.02,301.88c-2.93,2.93-2.93,7.67,0,10.6,2.93,2.93,7.67,2.93,10.6,0,2.92-2.93,2.92-7.67,0-10.6-2.93-2.93-7.67-2.93-10.6,0Z"/>
      <path class="cls-1" d="M1687.94,301.88c-2.93,2.93-2.93,7.67,0,10.6,2.93,2.93,7.67,2.93,10.6,0,2.92-2.93,2.92-7.67,0-10.6-2.93-2.93-7.67-2.93-10.6,0Z"/>
      <path class="cls-1" d="M1762.86,301.88c-2.93,2.93-2.93,7.67,0,10.6,2.93,2.93,7.67,2.93,10.6,0,2.92-2.93,2.92-7.67,0-10.6-2.93-2.93-7.67-2.93-10.6,0Z"/>
      <path class="cls-1" d="M938.72,301.88c-2.93,2.93-2.93,7.67,0,10.6,2.93,2.93,7.67,2.93,10.6,0,2.93-2.93,2.93-7.67,0-10.6-2.93-2.93-7.67-2.93-10.6,0Z"/>
      <path class="cls-1" d="M863.8,301.88c-2.93,2.93-2.93,7.67,0,10.6,2.93,2.93,7.67,2.93,10.6,0,2.93-2.93,2.93-7.67,0-10.6-2.93-2.93-7.67-2.93-10.6,0Z"/>
      <path class="cls-1" d="M788.87,301.88c-2.93,2.93-2.93,7.67,0,10.6,2.93,2.93,7.67,2.93,10.6,0s2.93-7.67,0-10.6c-2.93-2.93-7.67-2.93-10.6,0Z"/>
      <path class="cls-1" d="M713.95,301.88c-2.93,2.93-2.93,7.67,0,10.6s7.67,2.93,10.6,0c2.93-2.93,2.93-7.67,0-10.6-2.93-2.93-7.67-2.93-10.6,0Z"/>
      <path class="cls-1" d="M639.03,301.88c-2.92,2.93-2.92,7.67,0,10.6,2.93,2.93,7.67,2.93,10.6,0,2.93-2.93,2.93-7.67,0-10.6-2.93-2.93-7.67-2.93-10.6,0Z"/>
      <path class="cls-1" d="M564.11,301.88c-2.92,2.93-2.92,7.67,0,10.6,2.93,2.93,7.67,2.93,10.6,0,2.92-2.93,2.92-7.67,0-10.6-2.93-2.93-7.67-2.93-10.6,0Z"/>
      <path class="cls-1" d="M489.19,301.88c-2.92,2.93-2.92,7.67,0,10.6,2.93,2.93,7.67,2.93,10.6,0,2.93-2.93,2.93-7.67,0-10.6s-7.67-2.93-10.6,0Z"/>
      <path class="cls-1" d="M414.26,301.88c-2.92,2.93-2.92,7.67,0,10.6,2.93,2.93,7.67,2.93,10.6,0,2.92-2.93,2.92-7.67,0-10.6-2.93-2.93-7.67-2.93-10.6,0Z"/>
      <path class="cls-1" d="M339.34,301.88c-2.92,2.93-2.92,7.67,0,10.6,2.93,2.93,7.67,2.93,10.6,0,2.92-2.93,2.92-7.67,0-10.6-2.93-2.93-7.67-2.93-10.6,0Z"/>
      <path class="cls-1" d="M264.42,301.88c-2.92,2.93-2.92,7.67,0,10.6,2.93,2.93,7.67,2.93,10.6,0,2.92-2.93,2.92-7.67,0-10.6-2.93-2.93-7.67-2.93-10.6,0Z"/>
      <path class="cls-1" d="M189.5,301.88c-2.92,2.93-2.92,7.67,0,10.6,2.93,2.93,7.67,2.93,10.6,0,2.92-2.93,2.92-7.67,0-10.6-2.93-2.93-7.67-2.93-10.6,0Z"/>
      <path class="cls-1" d="M901.26,339.34c-2.92,2.93-2.92,7.67,0,10.6,2.93,2.93,7.67,2.93,10.6,0,2.93-2.93,2.93-7.67,0-10.6-2.93-2.93-7.67-2.93-10.6,0Z"/>
      <path class="cls-1" d="M826.33,339.34c-2.93,2.93-2.93,7.67,0,10.6s7.67,2.93,10.6,0c2.93-2.93,2.93-7.67,0-10.6-2.93-2.93-7.67-2.93-10.6,0Z"/>
      <path class="cls-1" d="M751.41,339.34c-2.92,2.93-2.92,7.67,0,10.6,2.93,2.93,7.67,2.93,10.6,0,2.93-2.93,2.93-7.67,0-10.6-2.93-2.93-7.67-2.93-10.6,0Z"/>
      <path class="cls-1" d="M676.49,339.34c-2.93,2.93-2.93,7.67,0,10.6,2.93,2.93,7.67,2.93,10.6,0s2.93-7.67,0-10.6c-2.93-2.93-7.67-2.93-10.6,0Z"/>
      <path class="cls-1" d="M601.57,339.34c-2.93,2.93-2.93,7.67,0,10.6,2.93,2.93,7.67,2.93,10.6,0,2.92-2.93,2.92-7.67,0-10.6-2.93-2.93-7.67-2.93-10.6,0Z"/>
      <path class="cls-1" d="M526.65,339.34c-2.93,2.93-2.93,7.67,0,10.6,2.93,2.93,7.67,2.93,10.6,0,2.92-2.93,2.92-7.67,0-10.6-2.93-2.93-7.67-2.93-10.6,0Z"/>
      <path class="cls-1" d="M451.72,339.34c-2.92,2.93-2.92,7.67,0,10.6,2.93,2.93,7.67,2.93,10.6,0,2.92-2.93,2.92-7.67,0-10.6-2.93-2.93-7.67-2.93-10.6,0Z"/>
      <path class="cls-1" d="M376.8,339.34c-2.93,2.93-2.93,7.67,0,10.6s7.67,2.93,10.6,0c2.93-2.93,2.93-7.67,0-10.6-2.93-2.93-7.67-2.93-10.6,0Z"/>
      <path class="cls-1" d="M301.88,339.34c-2.92,2.93-2.92,7.67,0,10.6,2.93,2.93,7.67,2.93,10.6,0,2.92-2.93,2.92-7.67,0-10.6-2.93-2.93-7.67-2.93-10.6,0Z"/>
      <path class="cls-1" d="M226.96,339.34c-2.92,2.93-2.92,7.67,0,10.6,2.93,2.93,7.67,2.93,10.6,0,2.92-2.93,2.92-7.67,0-10.6-2.93-2.93-7.67-2.93-10.6,0Z"/>
      <path class="cls-1" d="M1051.1,339.34c-2.93,2.93-2.93,7.67,0,10.6,2.93,2.93,7.67,2.93,10.6,0,2.93-2.93,2.93-7.67,0-10.6s-7.67-2.93-10.6,0Z"/>
      <path class="cls-1" d="M1126.02,339.34c-2.92,2.93-2.92,7.67,0,10.6,2.93,2.93,7.67,2.93,10.6,0,2.93-2.93,2.93-7.67,0-10.6-2.93-2.93-7.67-2.93-10.6,0Z"/>
      <path class="cls-1" d="M1200.94,339.34c-2.92,2.93-2.92,7.67,0,10.6,2.93,2.93,7.67,2.93,10.6,0s2.93-7.67,0-10.6c-2.93-2.93-7.67-2.93-10.6,0Z"/>
      <path class="cls-1" d="M1275.87,339.34c-2.93,2.93-2.93,7.67,0,10.6,2.93,2.93,7.67,2.93,10.6,0,2.93-2.93,2.93-7.67,0-10.6-2.93-2.93-7.67-2.93-10.6,0Z"/>
      <path class="cls-1" d="M1350.79,339.34c-2.93,2.93-2.93,7.67,0,10.6,2.93,2.93,7.67,2.93,10.6,0,2.92-2.93,2.92-7.67,0-10.6-2.93-2.93-7.67-2.93-10.6,0Z"/>
      <path class="cls-1" d="M1425.71,339.34c-2.92,2.93-2.92,7.67,0,10.6,2.93,2.93,7.67,2.93,10.6,0,2.92-2.93,2.92-7.67,0-10.6-2.93-2.93-7.67-2.93-10.6,0Z"/>
      <path class="cls-1" d="M1500.63,339.34c-2.93,2.93-2.93,7.67,0,10.6,2.93,2.93,7.67,2.93,10.6,0,2.92-2.93,2.92-7.67,0-10.6-2.93-2.93-7.67-2.93-10.6,0Z"/>
      <path class="cls-1" d="M1575.55,339.34c-2.93,2.93-2.93,7.67,0,10.6,2.93,2.93,7.67,2.93,10.6,0,2.92-2.93,2.92-7.67,0-10.6-2.93-2.93-7.67-2.93-10.6,0Z"/>
      <path class="cls-1" d="M1650.48,339.34c-2.93,2.93-2.93,7.67,0,10.6s7.67,2.93,10.6,0c2.92-2.93,2.92-7.67,0-10.6-2.93-2.93-7.67-2.93-10.6,0Z"/>
      <path class="cls-1" d="M1725.4,339.34c-2.93,2.93-2.93,7.67,0,10.6s7.67,2.93,10.6,0,2.93-7.67,0-10.6c-2.93-2.93-7.67-2.93-10.6,0Z"/>
      <path class="cls-1" d="M1800.32,339.34c-2.93,2.93-2.93,7.67,0,10.6,2.93,2.93,7.67,2.93,10.6,0s2.93-7.67,0-10.6c-2.93-2.93-7.67-2.93-10.6,0Z"/>
      <path class="cls-1" d="M976.18,264.42c-2.92,2.93-2.92,7.67,0,10.6,2.93,2.93,7.67,2.93,10.6,0,2.93-2.93,2.93-7.67,0-10.6s-7.67-2.93-10.6,0Z"/>
      <path class="cls-1" d="M1013.64,226.96c-2.93,2.93-2.93,7.67,0,10.6s7.67,2.93,10.6,0c2.93-2.93,2.93-7.67,0-10.6-2.93-2.93-7.67-2.93-10.6,0Z"/>
      <path class="cls-1" d="M1088.56,226.96c-2.92,2.93-2.92,7.67,0,10.6,2.93,2.93,7.67,2.93,10.6,0,2.93-2.93,2.93-7.67,0-10.6-2.93-2.93-7.67-2.93-10.6,0Z"/>
      <path class="cls-1" d="M1163.48,226.96c-2.92,2.93-2.92,7.67,0,10.6,2.93,2.93,7.67,2.93,10.6,0,2.93-2.93,2.93-7.67,0-10.6s-7.67-2.93-10.6,0Z"/>
      <path class="cls-1" d="M1238.41,226.96c-2.92,2.93-2.92,7.67,0,10.6,2.93,2.93,7.67,2.93,10.6,0,2.93-2.93,2.93-7.67,0-10.6-2.93-2.93-7.67-2.93-10.6,0Z"/>
      <path class="cls-1" d="M1313.33,226.96c-2.92,2.93-2.92,7.67,0,10.6,2.93,2.93,7.67,2.93,10.6,0,2.93-2.93,2.93-7.67,0-10.6-2.93-2.93-7.67-2.93-10.6,0Z"/>
      <path class="cls-1" d="M1388.25,226.96c-2.93,2.93-2.93,7.67,0,10.6,2.93,2.93,7.67,2.93,10.6,0,2.93-2.93,2.93-7.67,0-10.6-2.93-2.93-7.67-2.93-10.6,0Z"/>
      <path class="cls-1" d="M1463.17,226.96c-2.93,2.93-2.93,7.67,0,10.6,2.93,2.93,7.67,2.93,10.6,0,2.92-2.93,2.92-7.67,0-10.6-2.93-2.93-7.67-2.93-10.6,0Z"/>
      <path class="cls-1" d="M1538.09,226.96c-2.93,2.93-2.93,7.67,0,10.6,2.93,2.93,7.67,2.93,10.6,0,2.92-2.93,2.92-7.67,0-10.6-2.93-2.93-7.67-2.93-10.6,0Z"/>
      <path class="cls-1" d="M1613.02,226.96c-2.93,2.93-2.93,7.67,0,10.6,2.93,2.93,7.67,2.93,10.6,0,2.92-2.93,2.92-7.67,0-10.6-2.93-2.93-7.67-2.93-10.6,0Z"/>
      <path class="cls-1" d="M1687.94,226.96c-2.93,2.93-2.93,7.67,0,10.6,2.93,2.93,7.67,2.93,10.6,0,2.92-2.93,2.92-7.67,0-10.6-2.93-2.93-7.67-2.93-10.6,0Z"/>
      <path class="cls-1" d="M938.72,226.96c-2.93,2.93-2.93,7.67,0,10.6,2.93,2.93,7.67,2.93,10.6,0,2.93-2.93,2.93-7.67,0-10.6-2.93-2.93-7.67-2.93-10.6,0Z"/>
      <path class="cls-1" d="M863.8,226.96c-2.93,2.93-2.93,7.67,0,10.6,2.93,2.93,7.67,2.93,10.6,0,2.93-2.93,2.93-7.67,0-10.6-2.93-2.93-7.67-2.93-10.6,0Z"/>
      <path class="cls-1" d="M788.87,226.96c-2.93,2.93-2.93,7.67,0,10.6,2.93,2.93,7.67,2.93,10.6,0s2.93-7.67,0-10.6c-2.93-2.93-7.67-2.93-10.6,0Z"/>
      <path class="cls-1" d="M713.95,226.96c-2.93,2.93-2.93,7.67,0,10.6s7.67,2.93,10.6,0c2.93-2.93,2.93-7.67,0-10.6-2.93-2.93-7.67-2.93-10.6,0Z"/>
      <path class="cls-1" d="M639.03,226.96c-2.92,2.93-2.92,7.67,0,10.6,2.93,2.93,7.67,2.93,10.6,0,2.93-2.93,2.93-7.67,0-10.6-2.93-2.93-7.67-2.93-10.6,0Z"/>
      <path class="cls-1" d="M564.11,226.96c-2.92,2.93-2.92,7.67,0,10.6,2.93,2.93,7.67,2.93,10.6,0,2.92-2.93,2.92-7.67,0-10.6-2.93-2.93-7.67-2.93-10.6,0Z"/>
      <path class="cls-1" d="M489.19,226.96c-2.92,2.93-2.92,7.67,0,10.6,2.93,2.93,7.67,2.93,10.6,0,2.93-2.93,2.93-7.67,0-10.6-2.93-2.93-7.67-2.93-10.6,0Z"/>
      <path class="cls-1" d="M414.26,226.96c-2.92,2.93-2.92,7.67,0,10.6,2.93,2.93,7.67,2.93,10.6,0,2.92-2.93,2.92-7.67,0-10.6-2.93-2.93-7.67-2.93-10.6,0Z"/>
      <path class="cls-1" d="M339.34,226.96c-2.92,2.93-2.92,7.67,0,10.6,2.93,2.93,7.67,2.93,10.6,0,2.92-2.93,2.92-7.67,0-10.6-2.93-2.93-7.67-2.93-10.6,0Z"/>
      <path class="cls-1" d="M264.42,226.96c-2.92,2.93-2.92,7.67,0,10.6,2.93,2.93,7.67,2.93,10.6,0,2.92-2.93,2.92-7.67,0-10.6-2.93-2.93-7.67-2.93-10.6,0Z"/>
      <path class="cls-1" d="M901.26,264.42c-2.92,2.93-2.92,7.67,0,10.6,2.93,2.93,7.67,2.93,10.6,0,2.93-2.93,2.93-7.67,0-10.6-2.93-2.93-7.67-2.93-10.6,0Z"/>
      <path class="cls-1" d="M826.33,264.42c-2.93,2.93-2.93,7.67,0,10.6,2.93,2.93,7.67,2.93,10.6,0,2.93-2.93,2.93-7.67,0-10.6-2.93-2.93-7.67-2.93-10.6,0Z"/>
      <path class="cls-1" d="M751.41,264.42c-2.92,2.93-2.92,7.67,0,10.6,2.93,2.93,7.67,2.93,10.6,0s2.93-7.67,0-10.6c-2.93-2.93-7.67-2.93-10.6,0Z"/>
      <path class="cls-1" d="M676.49,264.42c-2.93,2.93-2.93,7.67,0,10.6,2.93,2.93,7.67,2.93,10.6,0,2.93-2.93,2.93-7.67,0-10.6-2.93-2.93-7.67-2.93-10.6,0Z"/>
      <path class="cls-1" d="M601.57,264.42c-2.93,2.93-2.93,7.67,0,10.6,2.93,2.93,7.67,2.93,10.6,0,2.92-2.93,2.92-7.67,0-10.6-2.93-2.93-7.67-2.93-10.6,0Z"/>
      <path class="cls-1" d="M526.65,264.42c-2.93,2.93-2.93,7.67,0,10.6,2.93,2.93,7.67,2.93,10.6,0,2.92-2.93,2.92-7.67,0-10.6-2.93-2.93-7.67-2.93-10.6,0Z"/>
      <path class="cls-1" d="M451.72,264.42c-2.92,2.93-2.92,7.67,0,10.6,2.93,2.93,7.67,2.93,10.6,0,2.92-2.93,2.92-7.67,0-10.6-2.93-2.93-7.67-2.93-10.6,0Z"/>
      <path class="cls-1" d="M376.8,264.42c-2.93,2.93-2.93,7.67,0,10.6,2.93,2.93,7.67,2.93,10.6,0,2.93-2.93,2.93-7.67,0-10.6-2.93-2.93-7.67-2.93-10.6,0Z"/>
      <path class="cls-1" d="M301.88,264.42c-2.92,2.93-2.92,7.67,0,10.6,2.93,2.93,7.67,2.93,10.6,0,2.92-2.93,2.92-7.67,0-10.6-2.93-2.93-7.67-2.93-10.6,0Z"/>
      <path class="cls-1" d="M226.96,264.42c-2.92,2.93-2.92,7.67,0,10.6,2.93,2.93,7.67,2.93,10.6,0,2.92-2.93,2.92-7.67,0-10.6-2.93-2.93-7.67-2.93-10.6,0Z"/>
      <path class="cls-1" d="M1051.1,264.42c-2.93,2.93-2.93,7.67,0,10.6,2.93,2.93,7.67,2.93,10.6,0,2.93-2.93,2.93-7.67,0-10.6-2.93-2.93-7.67-2.93-10.6,0Z"/>
      <path class="cls-1" d="M1126.02,264.42c-2.92,2.93-2.92,7.67,0,10.6,2.93,2.93,7.67,2.93,10.6,0,2.93-2.93,2.93-7.67,0-10.6-2.93-2.93-7.67-2.93-10.6,0Z"/>
      <path class="cls-1" d="M1200.94,264.42c-2.92,2.93-2.92,7.67,0,10.6,2.93,2.93,7.67,2.93,10.6,0,2.93-2.93,2.93-7.67,0-10.6-2.93-2.93-7.67-2.93-10.6,0Z"/>
      <path class="cls-1" d="M1275.87,264.42c-2.93,2.93-2.93,7.67,0,10.6,2.93,2.93,7.67,2.93,10.6,0,2.93-2.93,2.93-7.67,0-10.6s-7.67-2.93-10.6,0Z"/>
      <path class="cls-1" d="M1350.79,264.42c-2.93,2.93-2.93,7.67,0,10.6,2.93,2.93,7.67,2.93,10.6,0,2.92-2.93,2.92-7.67,0-10.6-2.93-2.93-7.67-2.93-10.6,0Z"/>
      <path class="cls-1" d="M1425.71,264.42c-2.92,2.93-2.92,7.67,0,10.6,2.93,2.93,7.67,2.93,10.6,0,2.92-2.93,2.92-7.67,0-10.6-2.93-2.93-7.67-2.93-10.6,0Z"/>
      <path class="cls-1" d="M1500.63,264.42c-2.93,2.93-2.93,7.67,0,10.6,2.93,2.93,7.67,2.93,10.6,0,2.92-2.93,2.92-7.67,0-10.6-2.93-2.93-7.67-2.93-10.6,0Z"/>
      <path class="cls-1" d="M1575.55,264.42c-2.93,2.93-2.93,7.67,0,10.6s7.67,2.93,10.6,0c2.92-2.93,2.92-7.67,0-10.6-2.93-2.93-7.67-2.93-10.6,0Z"/>
      <path class="cls-1" d="M1650.48,264.42c-2.93,2.93-2.93,7.67,0,10.6,2.93,2.93,7.67,2.93,10.6,0,2.92-2.93,2.92-7.67,0-10.6-2.93-2.93-7.67-2.93-10.6,0Z"/>
      <path class="cls-1" d="M1725.4,264.42c-2.93,2.93-2.93,7.67,0,10.6,2.93,2.93,7.67,2.93,10.6,0,2.93-2.93,2.93-7.67,0-10.6-2.93-2.93-7.67-2.93-10.6,0Z"/>
      <path class="cls-1" d="M976.18,189.5c-2.92,2.93-2.92,7.67,0,10.6,2.93,2.93,7.67,2.93,10.6,0,2.93-2.93,2.93-7.67,0-10.6-2.93-2.93-7.67-2.93-10.6,0Z"/>
      <path class="cls-1" d="M1013.64,152.04c-2.93,2.93-2.93,7.67,0,10.6,2.93,2.93,7.67,2.93,10.6,0,2.93-2.93,2.93-7.67,0-10.6-2.93-2.93-7.67-2.93-10.6,0Z"/>
      <path class="cls-1" d="M1088.56,152.04c-2.92,2.93-2.92,7.67,0,10.6,2.93,2.93,7.67,2.93,10.6,0s2.93-7.67,0-10.6-7.67-2.93-10.6,0Z"/>
      <path class="cls-1" d="M1163.48,152.04c-2.92,2.93-2.92,7.67,0,10.6,2.93,2.93,7.67,2.93,10.6,0s2.93-7.67,0-10.6-7.67-2.93-10.6,0Z"/>
      <path class="cls-1" d="M1238.41,152.04c-2.92,2.93-2.92,7.67,0,10.6,2.93,2.93,7.67,2.93,10.6,0s2.93-7.67,0-10.6-7.67-2.93-10.6,0Z"/>
      <path class="cls-1" d="M1313.33,152.04c-2.92,2.93-2.92,7.67,0,10.6,2.93,2.93,7.67,2.93,10.6,0,2.93-2.93,2.93-7.67,0-10.6-2.93-2.93-7.67-2.93-10.6,0Z"/>
      <circle class="cls-1" cx="1393.55" cy="157.34" r="7.49"/>
      <path class="cls-1" d="M1463.17,152.04c-2.93,2.93-2.93,7.67,0,10.6s7.67,2.93,10.6,0c2.92-2.93,2.92-7.67,0-10.6-2.93-2.93-7.67-2.93-10.6,0Z"/>
      <path class="cls-1" d="M1538.09,152.04c-2.93,2.93-2.93,7.67,0,10.6s7.67,2.93,10.6,0c2.92-2.93,2.92-7.67,0-10.6-2.93-2.93-7.67-2.93-10.6,0Z"/>
      <path class="cls-1" d="M938.72,152.04c-2.93,2.93-2.93,7.67,0,10.6,2.93,2.93,7.67,2.93,10.6,0,2.93-2.93,2.93-7.67,0-10.6-2.93-2.93-7.67-2.93-10.6,0Z"/>
      <path class="cls-1" d="M863.8,152.04c-2.93,2.93-2.93,7.67,0,10.6,2.93,2.93,7.67,2.93,10.6,0,2.93-2.93,2.93-7.67,0-10.6-2.93-2.93-7.67-2.93-10.6,0Z"/>
      <path class="cls-1" d="M788.87,152.04c-2.93,2.93-2.93,7.67,0,10.6,2.93,2.93,7.67,2.93,10.6,0,2.93-2.93,2.93-7.67,0-10.6-2.93-2.93-7.67-2.93-10.6,0Z"/>
      <path class="cls-1" d="M713.95,152.04c-2.93,2.93-2.93,7.67,0,10.6,2.93,2.93,7.67,2.93,10.6,0,2.93-2.93,2.93-7.67,0-10.6-2.93-2.93-7.67-2.93-10.6,0Z"/>
      <path class="cls-1" d="M639.03,152.04c-2.92,2.93-2.92,7.67,0,10.6,2.93,2.93,7.67,2.93,10.6,0,2.93-2.93,2.93-7.67,0-10.6-2.93-2.93-7.67-2.93-10.6,0Z"/>
      <path class="cls-1" d="M564.11,152.04c-2.92,2.93-2.92,7.67,0,10.6,2.93,2.93,7.67,2.93,10.6,0,2.92-2.93,2.92-7.67,0-10.6-2.93-2.93-7.67-2.93-10.6,0Z"/>
      <path class="cls-1" d="M489.19,152.04c-2.92,2.93-2.92,7.67,0,10.6,2.93,2.93,7.67,2.93,10.6,0,2.93-2.93,2.93-7.67,0-10.6-2.93-2.93-7.67-2.93-10.6,0Z"/>
      <path class="cls-1" d="M414.26,152.04c-2.92,2.93-2.92,7.67,0,10.6,2.93,2.93,7.67,2.93,10.6,0,2.92-2.93,2.92-7.67,0-10.6-2.93-2.93-7.67-2.93-10.6,0Z"/>
      <path class="cls-1" d="M901.26,189.5c-2.92,2.93-2.92,7.67,0,10.6,2.93,2.93,7.67,2.93,10.6,0,2.93-2.93,2.93-7.67,0-10.6s-7.67-2.93-10.6,0Z"/>
      <path class="cls-1" d="M826.33,189.5c-2.93,2.93-2.93,7.67,0,10.6,2.93,2.93,7.67,2.93,10.6,0s2.93-7.67,0-10.6c-2.93-2.93-7.67-2.93-10.6,0Z"/>
      <path class="cls-1" d="M751.41,189.5c-2.92,2.93-2.92,7.67,0,10.6,2.93,2.93,7.67,2.93,10.6,0,2.93-2.93,2.93-7.67,0-10.6-2.93-2.93-7.67-2.93-10.6,0Z"/>
      <path class="cls-1" d="M676.49,189.5c-2.93,2.93-2.93,7.67,0,10.6s7.67,2.93,10.6,0c2.93-2.93,2.93-7.67,0-10.6-2.93-2.93-7.67-2.93-10.6,0Z"/>
      <path class="cls-1" d="M601.57,189.5c-2.93,2.93-2.93,7.67,0,10.6,2.93,2.93,7.67,2.93,10.6,0,2.92-2.93,2.92-7.67,0-10.6-2.93-2.93-7.67-2.93-10.6,0Z"/>
      <path class="cls-1" d="M526.65,189.5c-2.93,2.93-2.93,7.67,0,10.6,2.93,2.93,7.67,2.93,10.6,0,2.92-2.93,2.92-7.67,0-10.6-2.93-2.93-7.67-2.93-10.6,0Z"/>
      <path class="cls-1" d="M451.72,189.5c-2.92,2.93-2.92,7.67,0,10.6,2.93,2.93,7.67,2.93,10.6,0,2.92-2.93,2.92-7.67,0-10.6-2.93-2.93-7.67-2.93-10.6,0Z"/>
      <path class="cls-1" d="M376.8,189.5c-2.93,2.93-2.93,7.67,0,10.6,2.93,2.93,7.67,2.93,10.6,0,2.93-2.93,2.93-7.67,0-10.6s-7.67-2.93-10.6,0Z"/>
      <path class="cls-1" d="M301.88,189.5c-2.92,2.93-2.92,7.67,0,10.6,2.93,2.93,7.67,2.93,10.6,0,2.92-2.93,2.92-7.67,0-10.6-2.93-2.93-7.67-2.93-10.6,0Z"/>
      <path class="cls-1" d="M1051.1,189.5c-2.93,2.93-2.93,7.67,0,10.6,2.93,2.93,7.67,2.93,10.6,0,2.93-2.93,2.93-7.67,0-10.6-2.93-2.93-7.67-2.93-10.6,0Z"/>
      <path class="cls-1" d="M1126.02,189.5c-2.92,2.93-2.92,7.67,0,10.6,2.93,2.93,7.67,2.93,10.6,0s2.93-7.67,0-10.6c-2.93-2.93-7.67-2.93-10.6,0Z"/>
      <path class="cls-1" d="M1200.94,189.5c-2.92,2.93-2.92,7.67,0,10.6,2.93,2.93,7.67,2.93,10.6,0,2.93-2.93,2.93-7.67,0-10.6-2.93-2.93-7.67-2.93-10.6,0Z"/>
      <path class="cls-1" d="M1275.87,189.5c-2.93,2.93-2.93,7.67,0,10.6,2.93,2.93,7.67,2.93,10.6,0,2.93-2.93,2.93-7.67,0-10.6-2.93-2.93-7.67-2.93-10.6,0Z"/>
      <path class="cls-1" d="M1350.79,189.5c-2.93,2.93-2.93,7.67,0,10.6,2.93,2.93,7.67,2.93,10.6,0,2.92-2.93,2.92-7.67,0-10.6-2.93-2.93-7.67-2.93-10.6,0Z"/>
      <path class="cls-1" d="M1425.71,189.5c-2.92,2.93-2.92,7.67,0,10.6,2.93,2.93,7.67,2.93,10.6,0,2.92-2.93,2.92-7.67,0-10.6-2.93-2.93-7.67-2.93-10.6,0Z"/>
      <path class="cls-1" d="M1500.63,189.5c-2.93,2.93-2.93,7.67,0,10.6s7.67,2.93,10.6,0c2.92-2.93,2.92-7.67,0-10.6-2.93-2.93-7.67-2.93-10.6,0Z"/>
      <path class="cls-1" d="M1575.55,189.5c-2.93,2.93-2.93,7.67,0,10.6,2.93,2.93,7.67,2.93,10.6,0,2.92-2.93,2.92-7.67,0-10.6-2.93-2.93-7.67-2.93-10.6,0Z"/>
      <path class="cls-1" d="M976.18,114.58c-2.92,2.93-2.92,7.67,0,10.6,2.93,2.93,7.67,2.93,10.6,0,2.93-2.93,2.93-7.67,0-10.6-2.93-2.93-7.67-2.93-10.6,0Z"/>
      <path class="cls-1" d="M1013.64,77.12c-2.93,2.92-2.93,7.67,0,10.6,2.93,2.93,7.67,2.93,10.6,0,2.93-2.93,2.93-7.67,0-10.6-2.93-2.93-7.67-2.93-10.6,0Z"/>
      <path class="cls-1" d="M1088.56,77.12c-2.92,2.92-2.92,7.67,0,10.6,2.93,2.93,7.67,2.93,10.6,0,2.93-2.93,2.93-7.67,0-10.6-2.93-2.93-7.67-2.93-10.6,0Z"/>
      <path class="cls-1" d="M1163.48,77.12c-2.92,2.92-2.92,7.67,0,10.6,2.93,2.93,7.67,2.93,10.6,0s2.93-7.67,0-10.6c-2.93-2.93-7.67-2.93-10.6,0Z"/>
      <path class="cls-1" d="M1238.41,77.12c-2.92,2.92-2.92,7.67,0,10.6,2.93,2.93,7.67,2.93,10.6,0,2.93-2.93,2.93-7.67,0-10.6-2.93-2.93-7.67-2.93-10.6,0Z"/>
      <path class="cls-1" d="M1313.33,77.12c-2.92,2.92-2.92,7.67,0,10.6,2.93,2.93,7.67,2.93,10.6,0,2.93-2.93,2.93-7.67,0-10.6-2.93-2.93-7.67-2.93-10.6,0Z"/>
      <path class="cls-1" d="M1388.25,77.12c-2.93,2.92-2.93,7.67,0,10.6s7.67,2.93,10.6,0c2.93-2.93,2.93-7.67,0-10.6-2.93-2.93-7.67-2.93-10.6,0Z"/>
      <path class="cls-1" d="M938.72,77.12c-2.93,2.92-2.93,7.67,0,10.6,2.93,2.93,7.67,2.93,10.6,0,2.93-2.93,2.93-7.67,0-10.6-2.93-2.93-7.67-2.93-10.6,0Z"/>
      <path class="cls-1" d="M863.8,77.12c-2.93,2.92-2.93,7.67,0,10.6,2.93,2.93,7.67,2.93,10.6,0,2.93-2.93,2.93-7.67,0-10.6-2.93-2.93-7.67-2.93-10.6,0Z"/>
      <path class="cls-1" d="M788.87,77.12c-2.93,2.92-2.93,7.67,0,10.6,2.93,2.93,7.67,2.93,10.6,0,2.93-2.93,2.93-7.67,0-10.6-2.93-2.93-7.67-2.93-10.6,0Z"/>
      <path class="cls-1" d="M713.95,77.12c-2.93,2.92-2.93,7.67,0,10.6,2.93,2.93,7.67,2.93,10.6,0,2.93-2.93,2.93-7.67,0-10.6-2.93-2.93-7.67-2.93-10.6,0Z"/>
      <path class="cls-1" d="M639.03,77.12c-2.92,2.92-2.92,7.67,0,10.6,2.93,2.93,7.67,2.93,10.6,0,2.93-2.93,2.93-7.67,0-10.6-2.93-2.93-7.67-2.93-10.6,0Z"/>
      <path class="cls-1" d="M564.11,77.12c-2.92,2.92-2.92,7.67,0,10.6,2.93,2.93,7.67,2.93,10.6,0,2.92-2.93,2.92-7.67,0-10.6-2.93-2.93-7.67-2.93-10.6,0Z"/>
      <path class="cls-1" d="M489.19,77.12c-2.92,2.92-2.92,7.67,0,10.6,2.93,2.93,7.67,2.93,10.6,0,2.93-2.93,2.93-7.67,0-10.6-2.93-2.93-7.67-2.93-10.6,0Z"/>
      <path class="cls-1" d="M901.26,114.58c-2.92,2.93-2.92,7.67,0,10.6,2.93,2.93,7.67,2.93,10.6,0,2.93-2.93,2.93-7.67,0-10.6-2.93-2.93-7.67-2.93-10.6,0Z"/>
      <path class="cls-1" d="M826.33,114.58c-2.93,2.93-2.93,7.67,0,10.6s7.67,2.93,10.6,0c2.93-2.93,2.93-7.67,0-10.6-2.93-2.93-7.67-2.93-10.6,0Z"/>
      <path class="cls-1" d="M751.41,114.58c-2.92,2.93-2.92,7.67,0,10.6,2.93,2.93,7.67,2.93,10.6,0,2.93-2.93,2.93-7.67,0-10.6-2.93-2.93-7.67-2.93-10.6,0Z"/>
      <path class="cls-1" d="M676.49,114.58c-2.93,2.93-2.93,7.67,0,10.6,2.93,2.93,7.67,2.93,10.6,0s2.93-7.67,0-10.6c-2.93-2.93-7.67-2.93-10.6,0Z"/>
      <path class="cls-1" d="M601.57,114.58c-2.93,2.93-2.93,7.67,0,10.6,2.93,2.93,7.67,2.93,10.6,0,2.92-2.93,2.92-7.67,0-10.6-2.93-2.93-7.67-2.93-10.6,0Z"/>
      <path class="cls-1" d="M526.65,114.58c-2.93,2.93-2.93,7.67,0,10.6,2.93,2.93,7.67,2.93,10.6,0,2.92-2.93,2.92-7.67,0-10.6-2.93-2.93-7.67-2.93-10.6,0Z"/>
      <path class="cls-1" d="M451.72,114.58c-2.92,2.93-2.92,7.67,0,10.6,2.93,2.93,7.67,2.93,10.6,0,2.92-2.93,2.92-7.67,0-10.6-2.93-2.93-7.67-2.93-10.6,0Z"/>
      <path class="cls-1" d="M1051.1,114.58c-2.93,2.93-2.93,7.67,0,10.6,2.93,2.93,7.67,2.93,10.6,0,2.93-2.93,2.93-7.67,0-10.6-2.93-2.93-7.67-2.93-10.6,0Z"/>
      <path class="cls-1" d="M1126.02,114.58c-2.92,2.93-2.92,7.67,0,10.6,2.93,2.93,7.67,2.93,10.6,0,2.93-2.93,2.93-7.67,0-10.6-2.93-2.93-7.67-2.93-10.6,0Z"/>
      <path class="cls-1" d="M1200.94,114.58c-2.92,2.93-2.92,7.67,0,10.6,2.93,2.93,7.67,2.93,10.6,0s2.93-7.67,0-10.6c-2.93-2.93-7.67-2.93-10.6,0Z"/>
      <path class="cls-1" d="M1275.87,114.58c-2.93,2.93-2.93,7.67,0,10.6,2.93,2.93,7.67,2.93,10.6,0,2.93-2.93,2.93-7.67,0-10.6-2.93-2.93-7.67-2.93-10.6,0Z"/>
      <path class="cls-1" d="M1350.79,114.58c-2.93,2.93-2.93,7.67,0,10.6,2.93,2.93,7.67,2.93,10.6,0,2.92-2.93,2.92-7.67,0-10.6-2.93-2.93-7.67-2.93-10.6,0Z"/>
      <path class="cls-1" d="M1425.71,114.58c-2.92,2.93-2.92,7.67,0,10.6,2.93,2.93,7.67,2.93,10.6,0,2.92-2.93,2.92-7.67,0-10.6-2.93-2.93-7.67-2.93-10.6,0Z"/>
      <path class="cls-1" d="M976.18,39.66c-2.92,2.92-2.92,7.67,0,10.6,2.93,2.93,7.67,2.93,10.6,0,2.93-2.93,2.93-7.67,0-10.6-2.93-2.93-7.67-2.93-10.6,0Z"/>
      <path class="cls-1" d="M1013.64,2.19c-2.93,2.92-2.93,7.67,0,10.6s7.67,2.93,10.6,0c2.93-2.93,2.93-7.67,0-10.6-2.93-2.93-7.67-2.93-10.6,0Z"/>
      <path class="cls-1" d="M1088.56,2.19c-2.92,2.92-2.92,7.67,0,10.6,2.93,2.93,7.67,2.93,10.6,0,2.93-2.93,2.93-7.67,0-10.6-2.93-2.93-7.67-2.93-10.6,0Z"/>
      <path class="cls-1" d="M938.72,2.19c-2.93,2.92-2.93,7.67,0,10.6,2.93,2.93,7.67,2.93,10.6,0,2.93-2.93,2.93-7.67,0-10.6-2.93-2.93-7.67-2.93-10.6,0Z"/>
      <path class="cls-1" d="M863.8,2.19c-2.93,2.92-2.93,7.67,0,10.6,2.93,2.93,7.67,2.93,10.6,0,2.93-2.93,2.93-7.67,0-10.6-2.93-2.93-7.67-2.93-10.6,0Z"/>
      <path class="cls-1" d="M788.87,2.19c-2.93,2.92-2.93,7.67,0,10.6,2.93,2.93,7.67,2.93,10.6,0s2.93-7.67,0-10.6c-2.93-2.93-7.67-2.93-10.6,0Z"/>
      <path class="cls-1" d="M713.95,2.19c-2.93,2.92-2.93,7.67,0,10.6s7.67,2.93,10.6,0c2.93-2.93,2.93-7.67,0-10.6-2.93-2.93-7.67-2.93-10.6,0Z"/>
      <path class="cls-1" d="M901.26,39.66c-2.92,2.92-2.92,7.67,0,10.6,2.93,2.93,7.67,2.93,10.6,0,2.93-2.93,2.93-7.67,0-10.6-2.93-2.93-7.67-2.93-10.6,0Z"/>
      <path class="cls-1" d="M826.33,39.66c-2.93,2.92-2.93,7.67,0,10.6s7.67,2.93,10.6,0c2.93-2.93,2.93-7.67,0-10.6-2.93-2.93-7.67-2.93-10.6,0Z"/>
      <path class="cls-1" d="M751.41,39.66c-2.92,2.92-2.92,7.67,0,10.6,2.93,2.93,7.67,2.93,10.6,0,2.93-2.93,2.93-7.67,0-10.6-2.93-2.93-7.67-2.93-10.6,0Z"/>
      <path class="cls-1" d="M676.49,39.66c-2.93,2.92-2.93,7.67,0,10.6,2.93,2.93,7.67,2.93,10.6,0s2.93-7.67,0-10.6c-2.93-2.93-7.67-2.93-10.6,0Z"/>
      <path class="cls-1" d="M601.57,39.66c-2.93,2.92-2.93,7.67,0,10.6,2.93,2.93,7.67,2.93,10.6,0,2.92-2.93,2.92-7.67,0-10.6-2.93-2.93-7.67-2.93-10.6,0Z"/>
      <path class="cls-1" d="M1051.1,39.66c-2.93,2.92-2.93,7.67,0,10.6,2.93,2.93,7.67,2.93,10.6,0,2.93-2.93,2.93-7.67,0-10.6-2.93-2.93-7.67-2.93-10.6,0Z"/>
      <path class="cls-1" d="M1126.02,39.66c-2.92,2.92-2.92,7.67,0,10.6,2.93,2.93,7.67,2.93,10.6,0,2.93-2.93,2.93-7.67,0-10.6-2.93-2.93-7.67-2.93-10.6,0Z"/>
      <path class="cls-1" d="M1200.94,39.66c-2.92,2.92-2.92,7.67,0,10.6,2.93,2.93,7.67,2.93,10.6,0s2.93-7.67,0-10.6c-2.93-2.93-7.67-2.93-10.6,0Z"/>
      <path class="cls-1" d="M1275.87,39.66c-2.93,2.92-2.93,7.67,0,10.6,2.93,2.93,7.67,2.93,10.6,0,2.93-2.93,2.93-7.67,0-10.6-2.93-2.93-7.67-2.93-10.6,0Z"/>
    </g>
  </g>
</svg>