<?xml version="1.0" encoding="UTF-8"?>
<svg id="Layer_2" xmlns="http://www.w3.org/2000/svg" viewBox="0 0 1268.15 655.2">
  <defs>
    <style>
      .cls-1 {
        fill: #fa446c;
      }

      .cls-2 {
        fill: #feb8dd;
      }

      .cls-3 {
        fill: #575ba3;
      }

      .cls-4 {
        fill: #fff;
      }

      .cls-5 {
        fill: #462260;
      }

      .cls-6 {
        fill: #fed7ea;
      }

      .cls-7, .cls-8 {
        fill: #713cd5;
      }

      .cls-9 {
        fill: #d3c5ff;
      }

      .cls-8 {
        opacity: .4;
      }

      .cls-10 {
        fill: #f7e6b4;
      }

      .cls-11 {
        fill: #562ac5;
      }
    </style>
  </defs>
  <g id="_Слой_2" data-name="Слой_2">
    <path id="_x0A_background" class="cls-6" d="M1000.37,266.43h0c-40.84,0-78.28,9.78-106.82,25.83-20.84,11.73-48.99-.5-48.99-21.41v-97.25C844.56,78.12,753.82,0,642.92,0h0c-110.9,0-201.63,78.12-201.63,173.61h0c0,57.16-60.39,101.66-128.65,94.27-8.79-.95-17.82-1.45-27.02-1.45h0c-88.95,0-161.72,46.36-161.72,103.01v18.36c0,5.19-5.07,9.4-11.33,9.4h-.12c-61.85,0-112.46,30.76-112.46,68.36v189.64h1162.09v-285.76c0-56.66-72.77-103.01-161.72-103.01Z"/>
    <path class="cls-10" d="M535.56,163.91s8.3,50.99,57.24,77.32c0,0,8.6-8.08,13.94-8.97l-7.94-68.35h-63.24Z"/>
    <path class="cls-5" d="M234.53,129.64h746.36c12.06,0,21.85,9.79,21.85,21.85v503.71H212.68V151.49c0-12.06,9.79-21.85,21.85-21.85Z"/>
    <rect class="cls-4" x="240.66" y="155.45" width="734.1" height="481.84"/>
    <path class="cls-7" d="M601.83,142.1c0-3.25,2.63-5.88,5.88-5.88s5.88,2.63,5.88,5.88-2.63,5.88-5.88,5.88-5.88-2.63-5.88-5.88Z"/>
    <rect class="cls-9" x="253.4" y="163.91" width="234.91" height="460.48"/>
    <path class="cls-1" d="M370.86,190.63c-31.77,0-57.52,25.75-57.52,57.52s57.52,102.4,57.52,102.4c0,0,57.52-70.63,57.52-102.4s-25.75-57.52-57.52-57.52ZM370.86,274.45c-14.85,0-26.89-12.04-26.89-26.89s12.04-26.89,26.89-26.89,26.89,12.04,26.89,26.89-12.04,26.89-26.89,26.89Z"/>
    <path class="cls-8" d="M308.13,375.8h125.45c2.11,0,3.82,1.71,3.82,3.82v1.27c0,2.11-1.71,3.82-3.82,3.82h-125.45c-2.11,0-3.82-1.71-3.82-3.82v-1.27c0-2.11,1.71-3.82,3.82-3.82Z"/>
    <path class="cls-8" d="M308.13,398.25h125.45c2.11,0,3.82,1.71,3.82,3.82v1.27c0,2.11-1.71,3.82-3.82,3.82h-125.45c-2.11,0-3.82-1.71-3.82-3.82v-1.27c0-2.11,1.71-3.82,3.82-3.82Z"/>
    <path class="cls-7" d="M893.97,485.51c-6.53,6.19-12.51,12.92-17.95,20.13.68-32.58,1.63-100.11-.41-153.83-1.29-32.71-20.27-59.64-54.95-77.94-20.33-10.75-40.26-15.44-48.01-16.93-2.58-10.41-11.56-18.5-22.78-20.33l-5.85-72.7h-12.04l7.21,72.84c-6.94,1.36-12.99,5.17-17,10.34-2.86-1.16-20.2-8.16-36.32-20.88-22.85-17.95-34.68-38.97-35.02-62.36l-14.55.2c.41,27.34,14.42,52.64,40.6,73.04,17.89,14.08,36.52,21.63,39.78,22.85v.07c-.14,1.02-.2,2.04-.2,3.13,0,5.24,1.63,10.2,4.42,14.35l-148.05,78.41c-.27-.95-.95-2.58-2.52-4.56-1.56-1.97-4.01-4.29-8.02-6.46-11.83-6.6-31.35-9.59-58.08-8.84l.2,5.37c57.53-1.63,62.7,15.03,62.97,15.91v.54l.48.68-63.52,33.59v15.85l71.54-37.88,56.79,82.36c-5.98,1.84-10.34,7.21-10.34,13.53,0,3.26,1.22,6.32,3.2,8.71l-91.88,17.68-.54.41c-1.16.95-11.63,10.2-8.03,45.5,3.26,32.78,13.53,80.72,14.69,86.1h5.98c-1.09-5.71-11.9-54.61-15.1-86.57-2.86-28.56,3.94-38.42,5.71-40.53l37.61-7.21,28.43,134.31h6.46l-29.38-135.33,51.96-10c1.84.75,3.88,1.16,5.92,1.16,4.96,0,9.32-2.25,12.04-5.71l205.25,68.14c-.61,1.36-1.16,2.79-1.77,4.22-16.46,40.53-15.44,76.24-15.37,77.73l14.55-.41c.72.41-.95-34.41,14.42-72.43,8.98-22.17,21.69-41.21,37.81-56.58,16.87-16.12,37.61-28.29,61.82-36.25v-14.55c-28.36,8.64-52.57,22.44-72.16,41.14ZM744.96,246.26c9.79,0,17.75,7.55,17.75,16.87s-7.96,16.8-17.75,16.8-17.82-7.55-17.82-16.8,8.02-16.87,17.82-16.87ZM580.79,367.45l151.59-80.18c3.81,1.77,8.03,2.79,12.58,2.79,12.79,0,23.67-8.09,27.2-19.11,8.23,1.82,24.76,6.25,41.35,14.95l-171.79,166.42c-.88-.27-1.77-.41-2.72-.54l-58.21-84.33ZM637.38,474.83c-5.17,0-9.39-3.95-9.39-8.84s4.22-8.91,9.39-8.91,9.45,3.94,9.45,8.91-4.22,8.84-9.45,8.84ZM860.44,530.46c-1.22,2.38-2.45,4.76-3.6,7.28l-204.91-68.01c.34-1.22.54-2.45.54-3.74,0-4.49-2.18-8.43-5.51-11.02l172.58-165.72c26.54,15.71,40.49,36.93,41.44,63.09,2.79,72.77-.54,177.16-.54,178.11Z"/>
    <path class="cls-11" d="M735.49,262.21c0-4.95,4.24-8.96,9.47-8.96s9.46,4.01,9.46,8.96-4.24,8.95-9.46,8.95-9.47-4.01-9.47-8.95Z"/>
    <path class="cls-11" d="M620.23,472.03l-87.69,17.51-28.21-46.46v-29.38l70.38-36.27,53.27,74.21s-14.56,4.78-7.76,20.4Z"/>
    <g>
      <path class="cls-11" d="M579.5,338.61l126.7-63.18-2.86-13.19c-30.13-6.6-53.39-35.84-63.52-50.8-.07-.07-.14-.07-.14-.14-.07-.07-.14-.2-.2-.34-.95-1.43-1.77-2.65-2.52-3.74-.48-.75-.95-1.56-1.43-2.45-.2-.27-.34-.54-.54-.88-.14-.2-.27-.48-.41-.75-.2-.34-.34-.54-.34-.54h-129.89v126.63c38.83-4.76,75.15,9.38,75.15,9.38Z"/>
      <path class="cls-11" d="M818.41,298.08l-165.34,156.1s5.74,3.83,3.83,13.06l196.35,61.9v-175.72s-1.25-40.88-34.83-55.33Z"/>
      <path class="cls-11" d="M777.39,281.93s-12.16,12.42-22.98,15.09c-10.82,2.67-22.5-2.55-22.5-2.55l-143.24,76.08,52.07,77.85,165.56-159.04s-14.66-9.1-28.9-7.44Z"/>
      <path class="cls-11" d="M627.99,163.9h-123.64v31.55h126.97c-3.13-8.23-5.37-19.11-3.33-31.55Z"/>
      <polygon class="cls-11" points="627.47 485.3 589.47 492.42 602.23 544.68 639.9 537.52 627.47 485.3"/>
      <polygon class="cls-11" points="641.01 541.14 602.93 547.81 614.45 597.31 652.44 589.12 641.01 541.14"/>
      <path class="cls-11" d="M632.14,484.46l24.24,103.69,182.53-41.95-187.96-66.09s-4.11,6.69-18.81,4.36Z"/>
      <path class="cls-11" d="M615.14,599.42l5.92,24.97h205.37c-4.23-41.76,13.01-74.07,13.01-74.07l-224.31,49.1Z"/>
      <path class="cls-11" d="M884.15,537.74c-17.34,31.12-23.24,86.65-23.24,86.65h105.18v-153.46c-22.72,9.18-54.66,17.85-81.95,66.81Z"/>
      <path class="cls-11" d="M749.98,163.91l4.44,66.87s17.81,3.68,22.34,21.25c0,0,95.59,18.54,106.26,89.33l.85,143.74s21.54-36.13,82.23-49.59V163.91h-216.12Z"/>
      <path class="cls-11" d="M718.76,241.22c6.34-7.15,14.73-8.97,14.73-8.97l-8.39-68.35h-68.84c5.95,44.7,62.5,77.32,62.5,77.32Z"/>
      <path class="cls-11" d="M523.61,489.54l-19.28-32.95v167.8h25.86s-12.93-79.88-12.93-97.49,6.35-37.36,6.35-37.36Z"/>
      <path class="cls-11" d="M539.76,501.84s-13.21,30.29,14.73,122.54h41.42l-26.69-128.47-29.47,5.93Z"/>
    </g>
    <path class="cls-11" d="M504.33,348.51s42.32,1.19,46.71,8.3l-46.71,22.54v-30.84Z"/>
    <path class="cls-2" d="M561.7,407.29c-11.91,0-21.56,9.65-21.56,21.56s21.56,38.38,21.56,38.38c0,0,21.56-26.47,21.56-38.38s-9.65-21.56-21.56-21.56ZM561.7,438.71c-5.57,0-10.08-4.51-10.08-10.08s4.51-10.08,10.08-10.08,10.08,4.51,10.08,10.08-4.51,10.08-10.08,10.08Z"/>
    <path class="cls-3" d="M639.48,210.96c-.48-.61-1.43-1.9-2.52-3.74.75,1.09,1.56,2.31,2.52,3.74Z"/>
    <path class="cls-6" d="M1088.19,184.52v-54.65c0-4.65,3.95-8.45,8.78-8.45h162.41c4.83,0,8.78,3.8,8.78,8.45v54.65c0,4.65-3.95,8.45-8.78,8.45h-113.64l-69.18,33.88,34.73-33.88h-14.32c-4.83,0-8.78-3.8-8.78-8.45Z"/>
    <ellipse class="cls-4" cx="1110.71" cy="145.83" rx="14.02" ry="13.5"/>
    <g>
      <polygon class="cls-4" points="1215.21 138.68 1213.36 144.14 1207.39 144.14 1212.22 147.52 1210.38 152.99 1215.21 149.61 1220.04 152.99 1218.19 147.52 1223.02 144.14 1217.05 144.14 1215.21 138.68"/>
      <polygon class="cls-4" points="1196.68 138.68 1194.83 144.14 1188.86 144.14 1193.69 147.52 1191.85 152.99 1196.68 149.61 1201.51 152.99 1199.66 147.52 1204.49 144.14 1198.52 144.14 1196.68 138.68"/>
      <polygon class="cls-4" points="1178.15 138.68 1176.3 144.14 1170.33 144.14 1175.16 147.52 1173.32 152.99 1178.15 149.61 1182.98 152.99 1181.13 147.52 1185.97 144.14 1179.99 144.14 1178.15 138.68"/>
      <polygon class="cls-4" points="1159.62 138.68 1157.78 144.14 1151.8 144.14 1156.63 147.52 1154.79 152.99 1159.62 149.61 1164.45 152.99 1162.61 147.52 1167.44 144.14 1161.47 144.14 1159.62 138.68"/>
      <polygon class="cls-4" points="1141.09 138.68 1139.25 144.14 1133.28 144.14 1138.11 147.52 1136.26 152.99 1141.09 149.61 1145.92 152.99 1144.08 147.52 1148.91 144.14 1142.94 144.14 1141.09 138.68"/>
    </g>
    <path class="cls-4" d="M1098.43,166.95h156.22c1.17,0,2.12.95,2.12,2.12v1.04c0,1.17-.95,2.12-2.12,2.12h-156.22c-1.17,0-2.12-.95-2.12-2.12v-1.04c0-1.17.95-2.12,2.12-2.12Z" transform="translate(2353.07 339.19) rotate(180)"/>
    <path class="cls-4" d="M1098.43,178.5h156.22c1.17,0,2.12.95,2.12,2.12v1.04c0,1.17-.95,2.12-2.12,2.12h-156.22c-1.17,0-2.12-.95-2.12-2.12v-1.04c0-1.17.95-2.12,2.12-2.12Z" transform="translate(2353.07 362.29) rotate(180)"/>
    <path class="cls-6" d="M436.38,123.63s-34.19-5.98-24.57-47.92c0,0,39.84,14.42,24.57,47.92Z"/>
    <path class="cls-6" d="M1004.77,246.77s3.16-34.56,45.74-28.42c0,0-11.11,40.89-45.74,28.42Z"/>
  </g>
</svg>