<?xml version="1.0" encoding="UTF-8"?>
<svg id="Layer_1" xmlns="http://www.w3.org/2000/svg" viewBox="0 0 1207.75 283.76">
  <defs>
    <style>
      .cls-1 {
        fill: #fff;
      }

      .cls-2 {
        fill: #d8315b;
      }
    </style>
  </defs>
  <g>
    <path class="cls-1" d="M3.69,0h44.07v130.07H3.69V0Z"/>
    <path class="cls-1" d="M107.1,34.83h-43.43V0h130.93v34.83h-43.43v95.24h-44.07V34.83Z"/>
    <path class="cls-1" d="M310.71,34.83h-43.43V0h130.93v34.83h-43.43v95.24h-44.07V34.83Z"/>
    <path class="cls-1" d="M495.82,115.02h-46.87l-4.3,15.05h-49.45L438.63,0h67.51l43.43,130.07h-49.45l-4.3-15.05ZM486.15,80.19l-12.68-45.36h-2.15l-12.69,45.36h27.52Z"/>
    <path class="cls-1" d="M612.99,85.14l-7.31,8.17v36.76h-44.07V0h44.07v40.42h1.5L643.09,0h47.3l-49.02,53.96,52.24,76.11h-48.38l-30.53-44.93h-1.72Z"/>
    <path class="cls-1" d="M752.31,34.83v12.68h79.55v34.83h-79.55v12.9h79.55v34.83h-123.62V0h123.62v34.83h-79.55Z"/>
    <path class="cls-1" d="M853.36,95.24h74.82c5.59,0,7.96-3.01,7.96-6.66,0-4.08-2.58-6.23-8.17-6.23h-33.75c-24.51,0-43.21-12.47-43.21-41.06,0-30.1,24.72-41.28,45.58-41.28h77.83v34.83h-70.95c-5.38,0-7.53,2.79-7.53,6.23s2.15,6.45,7.53,6.45h28.81c30.96,0,48.8,15.91,48.8,40.2s-18.49,42.35-48.16,42.35h-79.55v-34.83Z"/>
    <path class="cls-2" d="M0,190.71c0-34.31,27.93-62.24,62.44-62.24,17.16,0,32.72,6.98,44.09,18.35l-28.53,28.13c-3.99-3.99-9.38-6.38-15.56-6.38-12.37,0-22.14,9.78-22.14,21.94s9.78,22.14,22.14,22.14c6.18,0,11.77-2.59,15.76-6.78l28.73,28.53c-11.37,11.57-27.13,18.75-44.49,18.75-34.51,0-62.44-27.93-62.44-62.44Z"/>
    <path class="cls-2" d="M109.92,190.71c0-34.31,27.93-62.24,62.44-62.24s62.24,27.93,62.24,62.24-27.93,62.44-62.24,62.44-62.44-27.93-62.44-62.44ZM194.31,190.51c0-12.17-9.78-21.94-21.94-21.94s-22.14,9.78-22.14,21.94,9.77,22.14,22.14,22.14,21.94-9.77,21.94-22.14Z"/>
    <path class="cls-2" d="M249.57,130.46h41.49l29.92,38.1h1.6l29.92-38.1h41.49v120.69h-40.9v-67.03h-1.2l-29.13,32.52h-2l-29.13-32.52h-1.2v67.03h-40.9v-120.69Z"/>
    <path class="cls-2" d="M411.96,130.46h41.49l29.92,38.1h1.6l29.92-38.1h41.49v120.69h-40.9v-67.03h-1.2l-29.13,32.52h-2l-29.13-32.52h-1.2v67.03h-40.9v-120.69Z"/>
    <path class="cls-2" d="M574.35,189.11v-58.65h40.9v61.64c0,17.56,9.18,26.73,23.34,26.73s22.74-9.18,22.74-26.73v-61.64h40.9v58.65c0,47.08-27.33,64.04-64.64,64.04s-63.24-16.96-63.24-64.04Z"/>
    <path class="cls-2" d="M720.18,130.46h40.9l54.06,63.84h1.4v-63.84h40.9v120.69h-40.9l-53.86-62.24h-1.6v62.24h-40.9v-120.69Z"/>
    <path class="cls-2" d="M875.39,130.46h40.9v120.69h-40.9v-120.69Z"/>
    <path class="cls-2" d="M968.56,162.78h-40.3v-32.32h121.49v32.32h-40.3v88.38h-40.9v-88.38Z"/>
    <path class="cls-2" d="M1110.2,206.87l-58.45-76.41h49.87l27.93,38.1h1.4l27.13-38.1h49.67l-56.66,76.41v44.29h-40.9v-44.29Z"/>
    <path d="M29.03,272.12c.97,1.24,1.63,2.71,1.63,4.27,0,5.08-4.54,7.37-7.91,7.37H5.8v-23.47h16.95c3.37,0,7.91,2.25,7.91,7.33,0,1.71-.62,3.26-1.63,4.5ZM13.75,266.53v2.4h7.99c.62,0,1.16-.5,1.16-1.24s-.54-1.16-1.16-1.16h-7.99ZM22.9,276.31c0-.74-.54-1.24-1.16-1.24h-7.99v2.44h7.99c.62,0,1.16-.47,1.16-1.2Z"/>
    <path d="M41.64,275.15l-11.36-14.86h9.7l5.43,7.41h.27l5.27-7.41h9.66l-11.02,14.86v8.61h-7.95v-8.61Z"/>
    <path d="M92.49,274.8l5.16,8.96h-8.38l-4.69-8.65h-3.61v8.65h-7.95v-23.47h16.87c3.76,0,7.83,2.25,7.83,7.33,0,3.57-2.29,6.28-5.24,7.18ZM80.97,268.9h7.87c.62,0,1.16-.54,1.16-1.2,0-.78-.54-1.16-1.16-1.16h-7.87v2.37Z"/>
    <path d="M116.74,281.04h-8.46l-.78,2.72h-8.92l7.83-23.47h12.18l7.84,23.47h-8.92l-.78-2.72ZM114.99,274.76l-2.29-8.18h-.39l-2.29,8.18h4.96Z"/>
    <path d="M128.07,260.29h8.07l5.82,7.41h.31l5.82-7.41h8.07v23.47h-7.95v-13.03h-.23l-5.66,6.32h-.39l-5.66-6.32h-.23v13.03h-7.95v-23.47Z"/>
  </g>
  <path class="cls-1" d="M1166.35,59.73l-13.15-12.96.05-14.4-8.14.03.04,7.91-15.36-13.79-36.56,33.21h8.12v31.55h55.04v-31.55h9.95ZM1153.18,115.02h-46.87l-4.3,15.05h-49.45L1095.99,0h67.51l43.43,130.07h-49.45l-4.3-15.05Z"/>
</svg>