<?xml version="1.0" encoding="UTF-8"?>
<svg xmlns="http://www.w3.org/2000/svg" version="1.1" viewBox="0 0 110 135">
  <defs>
    <style>
      .cls-1 {
        fill-rule: evenodd;
      }
    </style>
  </defs>
  <!-- Generator: Adobe Illustrator 28.7.1, SVG Export Plug-In . SVG Version: 1.2.0 Build 142)  -->
  <g>
    <g id="Layer_1">
      <path class="cls-1" d="M48.8,28.2c-2.3,0-4.4.9-5.8,2.4-1.5,1.5-2.4,3.6-2.4,5.8s.4,2.7,1,4.6c.6,1.8,1.5,3.8,2.6,5.6,2.1,3.7,3.8,7,4.6,8.7.8-1.7,2.4-5,4.6-8.5,1.1-1.8,2-3.7,2.6-5.5.7-2,1.1-3.8,1.1-4.9,0-2.3-.9-4.4-2.4-5.8-1.5-1.5-3.6-2.4-5.8-2.4h0ZM45.4,33.3c.8-.8,2-1.4,3.3-1.4s2.5.5,3.3,1.4,1.4,2,1.4,3.3-.5,2.5-1.4,3.3-2,1.4-3.3,1.4-2.5-.5-3.3-1.4-1.4-2-1.4-3.3.5-2.5,1.4-3.3ZM39.5,79.5l19.7.4,8.4-10.6-15.8-5.2-12.3,15.3ZM59.5,81.2l-21.3-.5c-.1,0-.3,0-.4-.1-.3-.2-.3-.6-.1-.9l13.4-16.7c.2-.2.5-.3.7-.2l17.1,5.6s0,0,0,0h0c0,0,.1.1.2.2h0s0,0,0,0c0,0,0,.1,0,.2h0c0,.2,0,.3,0,.3h0s0,0,0,0c0,0,0,.1,0,.2h0c0,0,0,.1,0,.1l-9.2,11.6c-.1.2-.4.3-.6.2h0ZM85.3,64.8l-14.8,1-15.9-5.1,8.8-10.9h16.7l5.3,15.1h0ZM55.5,91.8l16.8-21.1,14.6-1.3,7.9,22.3h-39.3ZM18.3,83l-3.2,8.7h34.6l6.2-7.8-37.7-.9h0ZM28,56.3l19.4,6.3-13.3,16.7-14.3-.3,8.2-22.7h0ZM59.3,49.8h2.4l-8.7,10.8c0,0-.1.1-.1.2-.1.3,0,.7.4.8h0s0,0,0,0l16.9,5.4c0,0,.2,0,.2,0l15.3-1,.7,2-14.6,1.3c-.2,0-.4.1-.5.3l-17.6,22.1h-2.4l6.4-8c.2-.3.2-.7-.1-.9-.1-.1-.3-.1-.4-.1l-38.5-.9.5-1.4,15.1.3c.2,0,.4,0,.6-.2l14-17.7s0,0,0-.1h0c0,0,0-.1,0-.2h0c0-.1,0-.2,0-.3h0c0-.1,0-.2,0-.2h0s0,0,0,0c0,0-.1-.1-.2-.2h0s0,0,0,0l-20.2-6.6.5-1.4,21.2,7s0,0,0,0h0s0,0,0,0c0,0,.2,0,.3,0h0c0,0,.1,0,.2-.1h0s0,0,0,0c0,0,0,0,.1-.1l8.4-10.6h0ZM29.4,52.4l1-2.6h14c2.4,4.3,3.8,7.5,3.9,7.5.2.3.5.5.9.3.2,0,.3-.2.3-.3,0,0,1.4-3.3,3.8-7.5h4.4l-7.5,9.5-20.7-6.8Z"/>
    </g>
  </g>
</svg>